<svg width="48" height="48" viewBox="0 0 48 48" fill="none" xmlns="http://www.w3.org/2000/svg">
<g clip-path="url(#clip0_4683_8816)">
<path d="M32.6543 17.6779C34.1636 18.7297 35.9988 19.3466 37.978 19.3466C43.1263 19.3466 47.2998 15.1732 47.2998 10.0249C47.2998 4.87659 43.1263 0.703125 37.978 0.703125C32.8297 0.703125 28.6562 4.87659 28.6562 10.0249C28.6562 12.0065 29.2745 13.8436 30.3288 15.3539" stroke="#231C34" stroke-width="1.5" stroke-miterlimit="10" stroke-linecap="round" stroke-linejoin="round"/>
<path d="M41.4148 5.064L35.1554 7.74656C34.6928 7.94484 34.538 8.52403 34.84 8.92668L36.359 10.9521C36.4818 11.1158 36.4565 11.3467 36.3011 11.48L33.7284 13.6852C33.101 14.2229 33.6357 15.2384 34.434 15.0256L41.642 13.1034C42.1839 12.959 42.3987 12.3054 42.0484 11.8675L39.9017 9.18412C39.7781 9.02962 39.7904 8.80678 39.9304 8.66681L42.27 6.32718C42.8749 5.7225 42.2009 4.72706 41.4148 5.064Z" stroke="#231C34" stroke-width="1.5" stroke-miterlimit="10" stroke-linecap="round" stroke-linejoin="round"/>
<path d="M23.9774 36.5738V34.752C23.9774 34.0114 23.4547 33.3738 22.7285 33.2286L22.6824 33.2194C22.3999 33.1628 22.1748 32.9537 22.0901 32.6783C21.898 32.0531 21.6472 31.4537 21.3445 30.8861C21.2085 30.631 21.2191 30.3229 21.3795 30.0823L21.4089 30.0382C21.8197 29.4219 21.7385 28.6014 21.2148 28.0777L19.9266 26.7895C19.4029 26.2658 18.5824 26.1846 17.9662 26.5954L17.9169 26.6282C17.6768 26.7882 17.3692 26.7992 17.1143 26.6639C16.5493 26.364 15.953 26.1155 15.3311 25.925C15.0553 25.8405 14.8458 25.6153 14.7892 25.3325L14.7772 25.2724C14.6319 24.5462 13.9942 24.0234 13.2537 24.0234H11.4318C10.6912 24.0234 10.0536 24.5462 9.90834 25.2724L9.89634 25.3325C9.83981 25.6153 9.63019 25.8405 9.35437 25.925C8.73328 26.1152 8.13759 26.3633 7.57322 26.6628C7.31831 26.7981 7.01081 26.7871 6.77072 26.6271L6.71784 26.5918C6.10162 26.181 5.28112 26.2623 4.75744 26.786L3.46912 28.0742C2.94544 28.5979 2.86425 29.4184 3.27497 30.0346L3.30628 30.0815C3.46669 30.322 3.47728 30.6303 3.34125 30.8855C3.03937 31.4514 2.78916 32.049 2.59725 32.6722C2.5125 32.9475 2.2875 33.1565 2.00512 33.213L1.95206 33.2236C1.22587 33.3688 0.703125 34.0065 0.703125 34.747V36.5689C0.703125 37.3095 1.22587 37.9471 1.95206 38.0923L1.99453 38.1008C2.27784 38.1575 2.50331 38.3677 2.58741 38.6441C2.77847 39.2722 3.02859 39.8745 3.33112 40.4448C3.46631 40.6996 3.45534 41.007 3.29531 41.2471L3.2715 41.2828C2.86069 41.899 2.94197 42.7195 3.46556 43.2432L4.75387 44.5315C5.27756 45.0552 6.09806 45.1364 6.71428 44.7257L6.74212 44.7071C6.98287 44.5466 7.29122 44.536 7.54641 44.6724C8.11894 44.9784 8.724 45.2315 9.35531 45.4248C9.63103 45.5092 9.84047 45.7344 9.89709 46.0172L9.90337 46.0487C10.0486 46.7749 10.6863 47.2976 11.4268 47.2976H13.2487C13.9893 47.2976 14.6269 46.7749 14.7721 46.0487L14.7778 46.0203C14.8344 45.7373 15.0442 45.5119 15.3203 45.4276C15.9525 45.2347 16.5585 44.982 17.132 44.6762C17.3871 44.5402 17.6951 44.5508 17.9356 44.7112L17.9626 44.7292C18.5788 45.1401 19.3993 45.0588 19.923 44.5351L21.2113 43.2468C21.735 42.7231 21.8162 41.9026 21.4055 41.2864L21.3853 41.2562C21.2252 41.0159 21.2143 40.7082 21.3499 40.4533C21.6538 39.8817 21.9052 39.2779 22.097 38.6481C22.1812 38.3718 22.4065 38.1618 22.6897 38.1051L22.7285 38.0973C23.4547 37.9521 23.9774 37.3144 23.9774 36.5738Z" stroke="#231C34" stroke-width="1.5" stroke-miterlimit="10" stroke-linecap="round" stroke-linejoin="round"/>
<path d="M12.3416 38.7848C14.0577 38.7848 15.4489 37.3936 15.4489 35.6776C15.4489 33.9615 14.0577 32.5703 12.3416 32.5703C10.6255 32.5703 9.23438 33.9615 9.23438 35.6776C9.23438 37.3936 10.6255 38.7848 12.3416 38.7848Z" stroke="#231C34" stroke-width="1.5" stroke-miterlimit="10" stroke-linecap="round" stroke-linejoin="round"/>
<path d="M19.3314 35.6907C19.3407 31.8295 16.2181 28.6919 12.3569 28.6826C8.4957 28.6733 5.35808 31.7959 5.34881 35.6571C5.33954 39.5183 8.46215 42.6559 12.3233 42.6652C16.1845 42.6745 19.3222 39.5519 19.3314 35.6907Z" stroke="#231C34" stroke-width="1.5" stroke-miterlimit="10" stroke-linecap="round" stroke-linejoin="round"/>
<path d="M13.5586 11.2507C17.9117 7.6834 23.6781 6.68581 28.8235 8.25369" stroke="#231C34" stroke-width="1.5" stroke-miterlimit="10" stroke-linecap="round" stroke-linejoin="round"/>
<path d="M30.7468 4.13881C28.6008 3.41122 26.3272 3.03116 23.9948 3.03125C19.0163 3.03144 14.3033 4.75578 10.5352 7.91956" stroke="#231C34" stroke-width="1.5" stroke-miterlimit="10" stroke-linecap="round" stroke-linejoin="round"/>
<path d="M39.7464 19.1737C41.3318 24.3765 40.2942 30.2142 36.6292 34.5837C36.5588 34.6677 36.4308 34.6726 36.3532 34.5951L36.001 34.2428C35.5645 33.8063 34.8171 34.0555 34.7298 34.6666L34.0233 39.6102C33.9528 40.1046 34.3764 40.5283 34.8708 40.4576L39.8144 39.7512C40.4254 39.6639 40.6746 38.9165 40.2381 38.48L39.8055 38.0474C39.7358 37.9778 39.7327 37.8664 39.7976 37.7922C43.1418 33.9711 44.969 29.1273 44.9692 24.0021C44.9693 21.6696 44.5893 19.396 43.8617 17.25" stroke="#231C34" stroke-width="1.5" stroke-miterlimit="10" stroke-linecap="round" stroke-linejoin="round"/>
<path d="M3.04325 22.9961C3.02741 23.3313 3.01953 23.6679 3.01953 24.0058C3.01953 25.4046 3.15584 26.7824 3.42172 28.1242" stroke="#231C34" stroke-width="1.5" stroke-miterlimit="10" stroke-linecap="round" stroke-linejoin="round"/>
<path d="M7.72531 26.585C7.01572 22.0692 8.18338 17.3137 11.2271 13.5889C11.3678 13.4166 11.6263 13.4027 11.7836 13.56L11.9891 13.7655C12.4256 14.202 13.1729 13.9528 13.2603 13.3417L13.9667 8.39812C14.0373 7.90377 13.6137 7.48002 13.1192 7.55071L8.17559 8.25712C7.56453 8.3444 7.31534 9.09187 7.75184 9.52837L8.06066 9.83718C8.19997 9.97649 8.20616 10.199 8.07763 10.3483C5.74316 13.0602 4.16544 16.2768 3.45312 19.7377" stroke="#231C34" stroke-width="1.5" stroke-miterlimit="10" stroke-linecap="round" stroke-linejoin="round"/>
<path d="M34.4278 36.7539C30.7068 39.8045 25.9539 40.9802 21.4375 40.2779" stroke="#231C34" stroke-width="1.5" stroke-miterlimit="10" stroke-linecap="round" stroke-linejoin="round"/>
<path d="M19.875 44.58C21.2167 44.8458 22.5944 44.9821 23.9932 44.9821C28.9717 44.982 33.6848 43.2577 37.4529 40.0938" stroke="#231C34" stroke-width="1.5" stroke-miterlimit="10" stroke-linecap="round" stroke-linejoin="round"/>
<path d="M14.7712 37.6152C13.0533 36.4488 11.5679 34.9657 10.3984 33.25" stroke="#231C34" stroke-width="1.5" stroke-miterlimit="10" stroke-linecap="round" stroke-linejoin="round"/>
</g>
<defs>
<clipPath id="clip0_4683_8816">
<rect width="48" height="48" fill="white"/>
</clipPath>
</defs>
</svg>
