<svg width="48" height="48" viewBox="0 0 48 48" fill="none" xmlns="http://www.w3.org/2000/svg">
<path d="M40.0705 27.1966C40.0649 23.1203 38.6628 19.169 36.0978 16.0009C33.5328 12.8327 29.9597 10.6391 25.9738 9.78536V8.05286C26.1829 8.0719 26.3937 8.04736 26.5928 7.98079C26.792 7.91422 26.9752 7.80707 27.1308 7.6661C27.2864 7.52513 27.4111 7.35341 27.497 7.1618C27.5829 6.97018 27.6281 6.76284 27.6298 6.55286V4.5C27.6293 4.10233 27.4711 3.7211 27.1899 3.43991C26.9087 3.15871 26.5275 3.00051 26.1298 3H18.4065C18.0089 3.00051 17.6276 3.15871 17.3464 3.4399C17.0652 3.7211 16.907 4.10233 16.9065 4.5V6.55291C16.9105 6.77239 16.9612 6.98849 17.0553 7.18682C17.1493 7.38515 17.2846 7.56115 17.452 7.70309C17.6195 7.84503 17.8152 7.94964 18.0263 8.00995C18.2374 8.07026 18.4589 8.08488 18.676 8.05285V9.759C16.2291 10.2649 13.9168 11.2826 11.8911 12.7455L10.6708 11.5252C10.8205 11.3882 10.9409 11.2224 11.0248 11.0376C11.1087 10.8529 11.1544 10.6531 11.1591 10.4502C11.1638 10.2474 11.1275 10.0457 11.0522 9.85723C10.977 9.66878 10.8645 9.4975 10.7214 9.35366L9.87685 8.50916C9.59481 8.22916 9.21354 8.07197 8.81611 8.07183C8.41868 8.07169 8.0373 8.22861 7.75506 8.50841L3.58479 12.6788C3.44496 12.818 3.33412 12.9835 3.25869 13.1658C3.18326 13.3481 3.14474 13.5435 3.14535 13.7408C3.06735 14.5142 3.97535 15.1492 4.42999 15.645C4.58111 15.7934 4.76152 15.9085 4.95968 15.9831C5.15784 16.0578 5.36939 16.0902 5.5808 16.0784C5.79222 16.0666 5.99885 16.0109 6.18748 15.9147C6.37612 15.8185 6.5426 15.684 6.67629 15.5198L7.88311 16.7266C-0.689006 28.1735 7.85047 45.1385 22.2681 44.9991C26.988 44.9938 31.513 43.1165 34.8504 39.779C38.1879 36.4415 40.0652 31.9165 40.0705 27.1966ZM18.4065 6.55291V4.5H26.1298L26.129 6.55291H18.4065ZM24.4738 8.05291V9.53625C23.0473 9.35442 21.6037 9.34953 20.176 9.52169V8.05289L24.4738 8.05291ZM5.49048 14.5845L4.64529 13.7393L8.81563 9.56898L9.66156 10.4135L5.49048 14.5845ZM7.73678 14.4592L9.61028 12.5858L10.7036 13.6791C10.032 14.2545 9.40391 14.8788 8.82435 15.5468L7.73678 14.4592ZM22.2678 43.4993C17.9456 43.4943 13.8019 41.7751 10.7458 38.7188C7.68963 35.6625 5.97059 31.5188 5.96582 27.1966C6.86137 5.56943 37.6784 5.57648 38.5706 27.1967C38.5657 31.519 36.8466 35.6628 33.7902 38.7191C30.7339 41.7754 26.59 43.4945 22.2678 43.4993Z" fill="#231C34"/>
<path d="M22.2693 14.4453C18.889 14.4491 15.6482 15.7936 13.258 18.1838C10.8678 20.574 9.5233 23.8148 9.51953 27.1951C10.2196 44.1094 34.3215 44.1045 35.0191 27.195C35.0153 23.8147 33.6708 20.574 31.2805 18.1838C28.8903 15.7936 25.6496 14.4491 22.2693 14.4453ZM22.2693 38.4449C19.2866 38.4416 16.4271 37.2554 14.3181 35.1463C12.209 33.0373 11.0227 30.1777 11.0195 27.1951C11.6369 12.2706 32.9039 12.2749 33.5191 27.1952C33.5158 30.1778 32.3295 33.0373 30.2205 35.1464C28.1114 37.2554 25.2519 38.4417 22.2693 38.4449Z" fill="#231C34"/>
<path d="M39.5313 36C39.5312 36.0985 39.5505 36.1961 39.5882 36.2871C39.6259 36.3781 39.6811 36.4608 39.7508 36.5305C39.8204 36.6001 39.9031 36.6554 39.9942 36.693C40.0852 36.7307 40.1827 36.7501 40.2813 36.75H44.1059C44.3048 36.75 44.4956 36.671 44.6362 36.5303C44.7769 36.3897 44.8559 36.1989 44.8559 36C44.8559 35.8011 44.7769 35.6103 44.6362 35.4697C44.4956 35.329 44.3048 35.25 44.1059 35.25H40.2812C40.1827 35.2499 40.0852 35.2693 39.9942 35.307C39.9031 35.3446 39.8204 35.3999 39.7508 35.4695C39.6811 35.5392 39.6259 35.6219 39.5882 35.7129C39.5505 35.8039 39.5312 35.9015 39.5313 36Z" fill="#231C34"/>
<path d="M44.1085 39.375H37.5835C37.3871 39.3787 37.1999 39.4594 37.0623 39.5996C36.9247 39.7399 36.8477 39.9285 36.8477 40.125C36.8477 40.3215 36.9248 40.5101 37.0624 40.6504C37.2 40.7906 37.3871 40.8713 37.5836 40.875H44.1086C44.305 40.8713 44.4922 40.7906 44.6298 40.6504C44.7674 40.5101 44.8445 40.3215 44.8445 40.125C44.8445 39.9285 44.7674 39.7399 44.6297 39.5996C44.4921 39.4594 44.305 39.3787 44.1085 39.375Z" fill="#231C34"/>
<path d="M44.1087 43.5H32.8062C32.6097 43.5037 32.4226 43.5844 32.285 43.7246C32.1474 43.8649 32.0703 44.0535 32.0703 44.25C32.0703 44.4465 32.1474 44.6351 32.285 44.7754C32.4226 44.9156 32.6098 44.9963 32.8062 45H44.1087C44.3052 44.9963 44.4923 44.9156 44.6299 44.7754C44.7675 44.6351 44.8446 44.4465 44.8446 44.25C44.8446 44.0535 44.7675 43.8649 44.6299 43.7246C44.4923 43.5844 44.3051 43.5037 44.1087 43.5Z" fill="#231C34"/>
<path d="M27.7955 23.2232L20.0584 29.5695L16.8087 26.2312C16.669 26.0931 16.4807 26.0153 16.2843 26.0146C16.0879 26.0138 15.8991 26.0901 15.7583 26.227C15.6175 26.3639 15.5361 26.5506 15.5315 26.747C15.5268 26.9433 15.5994 27.1336 15.7335 27.2771L19.4636 31.109C19.5946 31.2437 19.7714 31.3243 19.959 31.3348C20.1466 31.3454 20.3313 31.2852 20.4766 31.1661L28.7462 24.3833C28.8956 24.2559 28.9891 24.0749 29.0066 23.8793C29.024 23.6837 28.9641 23.4891 28.8396 23.3372C28.7151 23.1853 28.5361 23.0883 28.3409 23.0669C28.1456 23.0456 27.9499 23.1017 27.7955 23.2232Z" fill="#231C34"/>
</svg>
