<svg width="120" height="120" viewBox="0 0 120 120" fill="none" xmlns="http://www.w3.org/2000/svg">
<g clip-path="url(#clip0_4683_10500)">
<path d="M95.2498 41.85V53.8446L96.9148 52.1796C97.5555 51.5388 98.5945 51.5391 99.2348 52.1796C99.8752 52.8202 99.8756 53.8591 99.2348 54.4997L94.7691 58.9657C94.4613 59.2734 94.0439 59.4464 93.6089 59.4464C93.1739 59.4464 92.7565 59.2737 92.4487 58.9657L87.983 54.4997C87.3424 53.8591 87.3424 52.8204 87.983 52.1796C88.6237 51.5393 89.6627 51.5393 90.303 52.1796L91.968 53.8446V41.85C91.968 40.9439 92.7026 40.2094 93.6087 40.2094C94.5148 40.2094 95.2493 40.9439 95.2493 41.85H95.2498ZM58.0343 13.8361C57.394 13.1953 56.3548 13.1953 55.7145 13.8361C55.0737 14.4766 55.0737 15.5154 55.7145 16.1559L57.3795 17.8209H45.3848C44.4788 17.8209 43.7442 18.5555 43.7442 19.4616C43.7442 20.3677 44.4788 21.1022 45.3848 21.1022H57.3795L55.7145 22.7672C55.0737 23.4077 55.0737 24.4465 55.7145 25.087C56.0346 25.4074 56.4546 25.5677 56.8744 25.5677C57.2941 25.5677 57.7141 25.4074 58.0343 25.087L62.5001 20.6213C63.1409 19.9807 63.1409 18.942 62.5001 18.3014L58.0343 13.8356V13.8361ZM31.4545 78.0769C36.3771 82.9997 37.7784 90.5991 34.9423 96.9874C33.333 100.612 29.0093 106.694 25.1941 112.06C23.5083 114.431 21.9157 116.671 20.8336 118.322C20.5303 118.784 20.0147 119.063 19.4616 119.063C18.9084 119.063 18.3928 118.784 18.0895 118.322C17.0074 116.672 15.4153 114.432 13.7297 112.061C9.9143 106.695 5.59008 100.612 3.98039 96.9877C1.14398 90.5993 2.54578 82.9997 7.46836 78.0773C10.6598 74.8859 14.9191 73.1283 19.4613 73.1283C24.0035 73.1283 28.2628 74.8859 31.4543 78.0771L31.4545 78.0769ZM29.1345 80.397C26.5627 77.8254 23.1274 76.4091 19.4616 76.4091C15.7957 76.4091 12.3605 77.8254 9.78867 80.3972C5.81883 84.367 4.69008 90.499 6.97969 95.6557C8.45555 98.9794 12.863 105.179 16.4044 110.16C17.4975 111.698 18.5517 113.181 19.4618 114.495C20.3721 113.18 21.4266 111.697 22.5202 110.159C26.0611 105.178 30.468 98.9789 31.9437 95.6557C34.2333 90.499 33.1041 84.367 29.1345 80.397ZM27.1045 82.4271C31.3188 86.6412 31.3188 93.4987 27.1045 97.713C24.9975 99.8203 22.2295 100.874 19.4618 100.874C16.6941 100.874 13.9259 99.8203 11.8188 97.7133C7.60453 93.499 7.60453 86.6414 11.8188 82.4271C16.0329 78.213 22.8902 78.2128 27.1045 82.4271ZM24.7847 84.747C21.8501 81.8123 17.0745 81.8126 14.1387 84.747C11.2038 87.6818 11.2038 92.4574 14.1387 95.3927C17.0737 98.3273 21.8494 98.3273 24.7847 95.3927C27.7195 92.4577 27.7195 87.682 24.7847 84.7467V84.747ZM68.1565 32.1047V5.20031C68.1565 4.29422 68.891 3.55969 69.7971 3.55969H99.8522C100.758 3.55969 101.493 4.29422 101.493 5.20031V8.86852H110.403C111.594 8.86852 112.656 9.49172 113.316 10.5785L118.281 18.7507C118.807 19.6167 119.063 20.55 119.063 21.6033V32.1049C119.063 33.011 118.328 33.7455 117.422 33.7455H113.388C112.968 36.1514 110.866 37.9863 108.342 37.9863C105.818 37.9863 103.716 36.1514 103.296 33.7455H84.1348C83.7148 36.1514 81.6124 37.9863 79.0884 37.9863C76.5645 37.9863 74.4621 36.1514 74.0421 33.7455H69.7976C68.8915 33.7455 68.157 33.011 68.157 32.1049L68.1565 32.1047ZM110.184 32.8617C110.184 31.8455 109.358 31.0188 108.342 31.0188C107.326 31.0188 106.499 31.8455 106.499 32.8617C106.499 33.878 107.325 34.7046 108.342 34.7046C109.358 34.7046 110.184 33.878 110.184 32.8617ZM101.493 12.1488V30.4638H103.815C104.677 28.8436 106.382 27.7373 108.341 27.7373C110.301 27.7373 112.006 28.8436 112.868 30.4638H115.781V21.6028C115.781 21.1554 115.687 20.801 115.476 20.4539L110.512 12.282C110.446 12.1737 110.399 12.146 110.399 12.1458L101.493 12.1488ZM80.9311 32.8617C80.9311 31.8455 80.1045 31.0188 79.0882 31.0188C78.072 31.0188 77.2453 31.8455 77.2453 32.8617C77.2453 33.878 78.072 34.7046 79.0882 34.7046C80.1045 34.7046 80.9311 33.878 80.9311 32.8617ZM71.4377 30.4641H74.5612C75.423 28.8438 77.1284 27.7376 79.088 27.7376C81.0476 27.7376 82.7531 28.8438 83.6147 30.4641H98.2116V6.84094H71.4377V30.4643V30.4641ZM117.394 117.394C116.317 118.47 114.882 119.062 113.353 119.062C111.824 119.062 110.389 118.47 109.313 117.394L98.336 106.417C97.6559 105.737 97.2813 104.831 97.2813 103.867C97.2813 103.556 97.3245 103.252 97.4002 102.958C96.9045 102.659 96.3014 102.65 95.7727 102.965C92.6044 104.85 88.9713 105.846 85.2666 105.846C73.9191 105.846 64.687 96.6138 64.687 85.2661C64.687 73.9184 73.9191 64.6866 85.2666 64.6866C96.6141 64.6866 105.846 73.9186 105.846 85.2661C105.846 88.9706 104.85 92.6037 102.965 95.7724C102.651 96.3012 102.66 96.904 102.958 97.3997C103.252 97.3237 103.556 97.2806 103.868 97.2806C104.831 97.2806 105.737 97.6554 106.417 98.3355L117.394 109.312C119.622 111.54 119.622 115.165 117.394 117.393L117.394 117.394ZM99.3445 100.309L100.309 99.3445C99.2529 97.7979 99.1594 95.7523 100.145 94.0952C101.728 91.4339 102.565 88.3807 102.565 85.2663C102.565 75.7282 94.8049 67.968 85.2666 67.968C75.7282 67.968 67.9683 75.728 67.9683 85.2663C67.9683 94.8047 75.7282 102.565 85.2666 102.565C88.3812 102.565 91.4339 101.728 94.0952 100.145C95.7527 99.1596 97.7979 99.2531 99.3445 100.309ZM115.074 111.633L104.097 100.656C104.019 100.579 103.929 100.562 103.868 100.562C103.806 100.562 103.715 100.579 103.638 100.656L100.656 103.638C100.579 103.715 100.563 103.805 100.563 103.867C100.563 103.929 100.579 104.019 100.656 104.096L111.633 115.073C112.089 115.53 112.7 115.781 113.353 115.781C114.006 115.781 114.618 115.53 115.074 115.073C116.022 114.125 116.022 112.581 115.074 111.632L115.074 111.633ZM100.299 85.2663C100.299 93.5552 93.5557 100.299 85.2666 100.299C76.9774 100.299 70.234 93.5555 70.234 85.2663C70.234 76.9772 76.9774 70.2337 85.2666 70.2337C93.5557 70.2337 100.299 76.9772 100.299 85.2663ZM97.0179 85.2663C97.0179 78.7868 91.7463 73.515 85.2666 73.515C78.7868 73.515 73.5152 78.7866 73.5152 85.2663C73.5152 91.7461 78.7868 97.0177 85.2666 97.0177C91.7463 97.0177 97.0179 91.7461 97.0179 85.2663ZM58.5546 88.2691H46.56L48.225 86.6041C48.8658 85.9634 48.8658 84.9246 48.225 84.2841C47.5847 83.6435 46.5457 83.6433 45.9049 84.2841L41.4389 88.7498C41.1312 89.0576 40.9582 89.475 40.9582 89.91C40.9582 90.345 41.1309 90.7624 41.4389 91.0702L45.9049 95.5359C46.2251 95.8561 46.6451 96.0164 47.0648 96.0164C47.4846 96.0164 47.9046 95.8561 48.225 95.5357C48.8656 94.8952 48.8656 93.8564 48.225 93.2156L46.56 91.5506H58.5546C59.4607 91.5506 60.1952 90.8161 60.1952 89.91C60.1952 89.0039 59.4607 88.2694 58.5546 88.2694V88.2691ZM38.7916 52.913H16.6603C14.4122 52.913 12.5831 51.0839 12.5831 48.8358V37.9861H5.625C3.04031 37.9861 0.9375 35.8833 0.9375 33.2988V5.625C0.937031 3.04031 3.03984 0.9375 5.62453 0.9375H33.2984C35.883 0.9375 37.9859 3.04031 37.9859 5.625V22.6275H38.7912C41.0395 22.6275 42.8684 24.4566 42.8684 26.7047V48.8358C42.8684 51.0841 41.0393 52.913 38.7912 52.913H38.7916ZM16.2527 11.8488H22.6706V4.21875H16.2527V11.8488ZM12.5829 34.7051V26.7049C12.5829 24.4566 14.412 22.6277 16.6601 22.6277H34.7048V5.625C34.7048 4.84945 34.0741 4.21875 33.2986 4.21875H25.9519V13.4895C25.9519 14.3955 25.2173 15.1301 24.3112 15.1301H14.6121C13.706 15.1301 12.9715 14.3955 12.9715 13.4895V4.21875H5.62453C4.84898 4.21875 4.21828 4.84945 4.21828 5.625V33.2988C4.21828 34.0741 4.84898 34.7048 5.62453 34.7048H12.5827L12.5829 34.7051ZM25.488 31.3535H29.9634V25.909H25.488V31.3535ZM39.5873 26.7049C39.5873 26.2659 39.2304 25.909 38.7914 25.909H33.2447V32.9941C33.2447 33.9002 32.5102 34.6348 31.6041 34.6348H23.8474C22.9413 34.6348 22.2068 33.9002 22.2068 32.9941V25.909H16.6601C16.2213 25.909 15.8641 26.2659 15.8641 26.7049V48.836C15.8641 49.275 16.2211 49.632 16.6601 49.632H38.7914C39.2304 49.632 39.5873 49.275 39.5873 48.836V26.7049Z" fill="#867D9E"/>
</g>
<defs>
<clipPath id="clip0_4683_10500">
<rect width="120" height="120" fill="white"/>
</clipPath>
</defs>
</svg>
