<svg width="120" height="120" viewBox="0 0 120 120" fill="none" xmlns="http://www.w3.org/2000/svg">
<path d="M26.25 41.25V93.75C26.25 95.2418 26.8426 96.6726 27.8975 97.7275C28.9524 98.7824 30.3832 99.375 31.875 99.375H88.125C89.6168 99.375 91.0476 98.7824 92.1025 97.7275C93.1574 96.6726 93.75 95.2418 93.75 93.75V41.25C93.75 39.7582 93.1574 38.3274 92.1025 37.2725C91.0476 36.2176 89.6168 35.625 88.125 35.625H31.875C30.3832 35.625 28.9524 36.2176 27.8975 37.2725C26.8426 38.3274 26.25 39.7582 26.25 41.25ZM90 41.25V93.75C90 94.2473 89.8025 94.7242 89.4508 95.0758C89.0992 95.4275 88.6223 95.625 88.125 95.625H31.875C31.3777 95.625 30.9008 95.4275 30.5492 95.0758C30.1975 94.7242 30 94.2473 30 93.75V41.25C30 40.7527 30.1975 40.2758 30.5492 39.9242C30.9008 39.5725 31.3777 39.375 31.875 39.375H88.125C88.6223 39.375 89.0992 39.5725 89.4508 39.9242C89.8025 40.2758 90 40.7527 90 41.25Z" fill="#867D9E"/>
<path d="M47.796 68.7753C49.1094 68.7708 50.3888 69.1919 51.4429 69.9753L47.8392 73.5809H45.9642C45.6656 73.5809 45.3713 73.6522 45.1059 73.7888C44.8404 73.9255 44.6114 74.1235 44.4379 74.3666L37.8098 83.6459C37.5518 84.0069 37.4302 84.4477 37.4666 84.8899C37.503 85.332 37.695 85.747 38.0085 86.0609L43.311 91.3653C43.6248 91.6791 44.0396 91.8715 44.4818 91.9082C44.924 91.9449 45.3648 91.8237 45.726 91.5659L55.0073 84.9359C55.2503 84.7625 55.4484 84.5335 55.585 84.268C55.7217 84.0025 55.7929 83.7083 55.7929 83.4097V81.5347L59.451 77.8766L70.371 88.8134C71.0654 89.5127 71.8916 90.0672 72.8018 90.4447C73.712 90.8222 74.6881 91.0153 75.6735 91.0128C77.1612 91.0169 78.6166 90.5791 79.855 89.7548C81.0935 88.9305 82.0592 87.757 82.6297 86.383C83.2001 85.0091 83.3497 83.4967 83.0593 82.0376C82.7689 80.5785 82.0516 79.2386 80.9985 78.1878L71.3948 68.5841L83.091 56.8878C83.8074 56.196 84.3787 55.3684 84.7718 54.4533C85.1649 53.5383 85.3718 52.5542 85.3804 51.5583C85.3891 50.5625 85.1993 49.5749 84.8222 48.6532C84.4451 47.7314 83.8882 46.894 83.184 46.1899C82.4798 45.4857 81.6424 44.9288 80.7207 44.5517C79.799 44.1745 78.8114 43.9848 77.8155 43.9934C76.8197 44.0021 75.8355 44.209 74.9205 44.6021C74.0055 44.9951 73.1779 45.5665 72.486 46.2828L61.236 57.5328C61.0534 56.9793 60.961 56.4 60.9623 55.8172C60.9932 54.0643 60.6694 52.3233 60.0105 50.6988C59.3516 49.0742 58.3711 47.5995 57.1279 46.3634C55.202 44.4528 52.7325 43.1842 50.0577 42.7314C47.3829 42.2786 44.6335 42.6638 42.186 43.8341C41.9156 43.9639 41.6803 44.1567 41.4998 44.3962C41.3193 44.6358 41.199 44.9152 41.1488 45.211C41.0987 45.5067 41.1202 45.8102 41.2116 46.0958C41.303 46.3815 41.4617 46.6411 41.6742 46.8528L48.3492 53.5128L47.6798 55.5003L45.6904 56.1659L39.0117 49.4872C38.7997 49.2752 38.54 49.1171 38.2543 49.0262C37.9687 48.9353 37.6654 48.9142 37.3699 48.9647C37.0744 49.0152 36.7953 49.1359 36.556 49.3165C36.3168 49.4971 36.1243 49.7325 35.9948 50.0028C34.9891 52.1345 34.5695 54.4957 34.7791 56.8433C34.9887 59.191 35.8199 61.4405 37.1873 63.3603C38.3999 65.0391 39.9942 66.4056 41.8387 67.3471C43.6832 68.2886 45.7251 68.7781 47.796 68.7753ZM52.5942 79.4328C52.2425 79.7844 52.0449 80.2612 52.0448 80.7584V82.4459L44.841 87.5909L41.7829 84.5328L46.9279 77.3309H48.6154C49.1127 77.3308 49.5895 77.1332 49.941 76.7816L60.5479 66.1747L63.1992 68.8259L52.5942 79.4328ZM78.3417 80.8447C79.0419 81.5495 79.4358 82.502 79.4379 83.4955C79.44 84.489 79.0501 85.4432 78.3529 86.1509C77.6375 86.8386 76.6844 87.2238 75.6921 87.2263C74.6998 87.2287 73.7448 86.8482 73.026 86.1641L62.1042 75.2253L65.8542 71.4753C66.2058 71.8268 66.6826 72.0243 67.1798 72.0243C67.677 72.0243 68.1538 71.8268 68.5054 71.4753L68.7417 71.2391L78.3417 80.8447ZM75.1317 48.9378C75.8458 48.2556 76.7953 47.875 77.7829 47.875C78.7705 47.875 79.7201 48.2556 80.4342 48.9378C81.1372 49.641 81.5321 50.5947 81.5321 51.5891C81.5321 52.5834 81.1372 53.5371 80.4342 54.2403L67.176 67.5003L61.8735 62.1959L75.1317 48.9378ZM38.5692 54.3378L43.8698 59.6366C44.1162 59.8828 44.4264 60.0556 44.7656 60.1354C45.1047 60.2152 45.4594 60.1989 45.7898 60.0884L49.7648 58.7572C50.0399 58.6652 50.29 58.5107 50.4953 58.3057C50.7006 58.1008 50.8555 57.8509 50.9479 57.5759L52.2792 53.5991C52.3898 53.2682 52.406 52.9131 52.3258 52.5736C52.2456 52.234 52.0724 51.9236 51.8254 51.6772L46.5267 46.3897C47.9654 46.1828 49.4325 46.3122 50.8128 46.7677C52.1932 47.2231 53.4492 47.9922 54.4823 49.0147C55.3684 49.8981 56.0671 50.9513 56.5365 52.1111C57.0059 53.271 57.2364 54.5136 57.2142 55.7647C57.2022 57.3743 57.6092 58.9594 58.3954 60.3641L57.906 60.8534C57.5545 61.2051 57.3571 61.6819 57.3571 62.1791C57.3571 62.6762 57.5545 63.1531 57.906 63.5047L54.0998 67.3128C52.3624 65.8229 50.1467 65.0082 47.8579 65.0178C46.3654 65.0389 44.8902 64.6972 43.5589 64.0221C42.2277 63.347 41.0803 62.3587 40.2154 61.1422C38.8112 59.1711 38.2184 56.7356 38.5598 54.3397L38.5692 54.3378Z" fill="#867D9E"/>
<path d="M115.031 24.4875L101.25 19.275V5.625C101.25 5.12772 101.053 4.65081 100.701 4.29917C100.349 3.94754 99.8723 3.75 99.3751 3.75H86.2501C85.7528 3.75 85.2759 3.94754 84.9242 4.29917C84.5726 4.65081 84.3751 5.12772 84.3751 5.625V12.8625L60.6563 3.8625C60.2317 3.71253 59.7684 3.71253 59.3438 3.8625L4.9688 24.4875C4.61098 24.6232 4.30283 24.8644 4.08518 25.1791C3.86753 25.4939 3.75066 25.8673 3.75005 26.25V37.5C3.74781 37.8028 3.8202 38.1015 3.96082 38.3696C4.10144 38.6378 4.30596 38.8672 4.5563 39.0375C4.80486 39.2103 5.09124 39.3209 5.39141 39.36C5.69157 39.3992 5.99674 39.3657 6.2813 39.2625L11.2501 37.3688V105H7.50005C7.00277 105 6.52586 105.198 6.17423 105.549C5.82259 105.901 5.62505 106.378 5.62505 106.875V114.375C5.62505 114.872 5.82259 115.349 6.17423 115.701C6.52586 116.052 7.00277 116.25 7.50005 116.25H112.5C112.997 116.25 113.474 116.052 113.826 115.701C114.178 115.349 114.375 114.872 114.375 114.375V106.875C114.375 106.378 114.178 105.901 113.826 105.549C113.474 105.198 112.997 105 112.5 105H108.75V37.3688L113.719 39.2625C113.929 39.3377 114.151 39.3758 114.375 39.375C114.872 39.375 115.349 39.1775 115.701 38.8258C116.053 38.4742 116.25 37.9973 116.25 37.5V26.25C116.249 25.8673 116.133 25.4939 115.915 25.1791C115.697 24.8644 115.389 24.6232 115.031 24.4875ZM88.1251 7.5H97.5001V17.85L88.1251 14.2875V7.5ZM110.625 108.75V112.5H9.37505V108.75H110.625ZM15.0001 105V35.9437L60 18.8812L105 35.9437V105H15.0001ZM112.5 34.7812L60.6563 15.1125C60.2317 14.9625 59.7684 14.9625 59.3438 15.1125L7.50005 34.7812V27.5437L60 7.63125L112.5 27.5437V34.7812Z" fill="#867D9E"/>
</svg>
