<svg width="120" height="120" viewBox="0 0 120 120" fill="none" xmlns="http://www.w3.org/2000/svg">
<mask id="mask0_4683_10589" style="mask-type:luminance" maskUnits="userSpaceOnUse" x="0" y="0" width="120" height="120">
<path d="M0 7.62939e-06H120V120H0V7.62939e-06Z" fill="white"/>
</mask>
<g mask="url(#mask0_4683_10589)">
<path d="M98.5375 31.8461H98.9547H106.741C110.404 31.8461 113.373 34.8156 113.373 38.4766V103.387H6.625V38.4766C6.625 34.8156 9.59454 31.8461 13.2578 31.8461H21.0437H21.4609" stroke="#867D9E" stroke-width="3" stroke-miterlimit="10" stroke-linecap="round" stroke-linejoin="round"/>
<path d="M24.107 95.1836H14.8281V40.0492H34.0891" stroke="#867D9E" stroke-width="3" stroke-miterlimit="10" stroke-linecap="round" stroke-linejoin="round"/>
<path d="M85.9117 40.0492H105.173V95.1836H31.1406" stroke="#867D9E" stroke-width="3" stroke-miterlimit="10" stroke-linecap="round" stroke-linejoin="round"/>
<path d="M66.318 110.154H53.684C50.0549 110.154 47.1133 107.212 47.1133 103.584V103.385H72.8887V103.584C72.8887 107.212 69.9468 110.154 66.318 110.154Z" stroke="#867D9E" stroke-width="3" stroke-miterlimit="10" stroke-linecap="round" stroke-linejoin="round"/>
<path d="M118.242 103.385H1.75781V107.281C1.75781 112.607 6.07476 116.924 11.4002 116.924H108.6C113.925 116.924 118.242 112.607 118.242 107.281V103.385Z" stroke="#867D9E" stroke-width="3" stroke-miterlimit="10" stroke-linecap="round" stroke-linejoin="round"/>
<path d="M85.9102 38.5344V48.4361C85.9102 54.351 82.3779 59.7187 76.916 61.989C66.1008 66.4841 53.8992 66.4841 43.0842 61.989C37.6221 59.7187 34.0898 54.351 34.0898 48.4361V38.5344" stroke="#867D9E" stroke-width="3" stroke-miterlimit="10" stroke-linecap="round" stroke-linejoin="round"/>
<path d="M75.7078 10.0742L98.693 22.25C102.509 24.2727 102.509 29.7406 98.693 31.7633L64.7016 49.7703C61.7602 51.3266 58.2398 51.3266 55.2984 49.7703L21.307 31.7633C17.4914 29.7406 17.4914 24.2727 21.307 22.25L55.2984 4.24297C58.2398 2.68672 61.7602 2.68672 64.7016 4.24297L69.5672 6.8211" stroke="#867D9E" stroke-width="3" stroke-miterlimit="10" stroke-linecap="round" stroke-linejoin="round"/>
<path d="M60 27.0075L75.1209 44.2504V67.6162" stroke="#867D9E" stroke-width="3" stroke-miterlimit="10" stroke-linecap="round" stroke-linejoin="round"/>
<path d="M75.1191 67.616L71.3047 74.2225C69.9284 76.6068 71.6487 79.5869 74.4017 79.5869H75.8366C78.5893 79.5869 80.3098 76.6068 78.9334 74.2225L75.1191 67.616Z" stroke="#867D9E" stroke-width="3" stroke-miterlimit="10" stroke-linecap="round" stroke-linejoin="round"/>
<path d="M23.582 86.9795H58.7725" stroke="#867D9E" stroke-width="3" stroke-miterlimit="10" stroke-linecap="round" stroke-linejoin="round"/>
<path d="M23.582 79.5869H47.1109" stroke="#867D9E" stroke-width="3" stroke-miterlimit="10" stroke-linecap="round" stroke-linejoin="round"/>
</g>
</svg>
