<svg width="120" height="120" viewBox="0 0 120 120" fill="none" xmlns="http://www.w3.org/2000/svg">
<g clip-path="url(#clip0_4683_10527)">
<path d="M48.7445 0C45.6601 0 43.125 2.53507 43.125 5.61946V9.37039C43.125 12.4548 45.6601 15.0037 48.7445 15.0037H101.244C104.328 15.0037 106.877 12.4548 106.877 9.37039V5.61946C106.877 2.53507 104.328 0 101.244 0L48.7445 0ZM48.7445 3.75092H101.244C102.301 3.75092 103.126 4.56172 103.126 5.61946V9.37039C103.126 10.4281 102.301 11.2528 101.244 11.2528H48.7445C47.6867 11.2528 46.8759 10.4281 46.8759 9.37039V5.61946C46.8759 4.56172 47.6867 3.75092 48.7445 3.75092Z" fill="#867D9E"/>
<path d="M48.9249 12.332L37.6721 36.7199C37.5574 36.9625 37.496 37.2268 37.4922 37.495V78.7552C37.4922 82.8751 40.8741 86.2432 44.994 86.2432H104.995C109.115 86.2432 112.497 82.8751 112.497 78.7552V37.495C112.497 37.2278 112.441 36.9635 112.331 36.7199L101.078 12.332L97.673 13.9099L108.746 37.9103V78.7552C108.746 80.8485 107.088 82.5061 104.995 82.5061H44.994C42.9008 82.5061 41.2431 80.8485 41.2431 78.7552V37.9103L52.3298 13.9099L48.9249 12.332Z" fill="#867D9E"/>
<path d="M97.6749 12.332L86.4221 36.7199C86.3074 36.9625 86.246 37.2268 86.2422 37.495V84.3747H89.9931V37.9103L101.08 13.9099L97.6749 12.332Z" fill="#867D9E"/>
<path d="M99.3785 46.8799C98.3426 46.8758 97.4997 47.7125 97.4961 48.7484V69.3716C97.4998 69.3753 101.247 69.3716 101.247 69.3716V48.7484C101.243 47.7179 100.409 46.8834 99.3785 46.8799Z" fill="#867D9E"/>
<path d="M99.4042 66.2021L86.6289 83.2543L89.6186 85.4966L99.335 72.5552L107.224 83.5865L110.269 81.4135L99.4042 66.2021Z" fill="#867D9E"/>
<path d="M63.7502 44.9971C56.5237 44.9971 50.6289 50.8919 50.6289 58.1184V61.8693H54.3798V58.1184C54.3798 52.9185 58.5503 48.748 63.7502 48.748C68.9501 48.748 73.1206 52.9185 73.1206 58.1184V61.8693H76.8715V58.1184C76.8715 50.8919 70.9767 44.9971 63.7502 44.9971Z" fill="#867D9E"/>
<path d="M48.7475 60.001C48.2524 60.0027 47.7781 60.2001 47.4281 60.5501C47.078 60.9002 46.8806 61.3745 46.8789 61.8695C46.8779 62.1158 46.9255 62.3599 47.0189 62.5878C47.1123 62.8157 47.2497 63.023 47.4232 63.1978C47.5967 63.3726 47.803 63.5115 48.0302 63.6066C48.2574 63.7017 48.5012 63.7511 48.7475 63.7519H78.7548C79.0011 63.7511 79.2449 63.7017 79.4721 63.6066C79.6993 63.5115 79.9056 63.3726 80.0791 63.1978C80.2526 63.023 80.39 62.8157 80.4834 62.5878C80.5768 62.3599 80.6244 62.1158 80.6234 61.8695C80.6217 61.3745 80.4243 60.9002 80.0742 60.5501C79.7242 60.2001 79.2499 60.0027 78.7548 60.001H48.7475Z" fill="#867D9E"/>
<path d="M63.7496 41.2461C62.7083 41.242 61.8631 42.0872 61.8672 43.1285V46.8794H65.6181V43.1285C65.6222 42.0926 64.7855 41.2497 63.7496 41.2461Z" fill="#867D9E"/>
<path d="M9.36855 82.5059C8.87353 82.5076 8.39927 82.705 8.04923 83.0551C7.69919 83.4051 7.50177 83.8794 7.50001 84.3744V118.119C7.49907 118.365 7.54665 118.609 7.64005 118.837C7.73345 119.065 7.87083 119.272 8.04435 119.447C8.21786 119.622 8.42412 119.761 8.65133 119.856C8.87854 119.951 9.12225 120 9.36855 120.001H24.3722C26.8722 120.001 28.635 118.479 29.3273 117.095C30.0197 115.71 29.9917 114.368 29.9917 114.368V88.1253C29.9917 88.1253 30.0197 86.7972 29.3273 85.4125C28.635 84.0278 26.8722 82.5059 24.3722 82.5059H9.36855ZM11.2509 86.2429H24.3722C25.6222 86.2429 25.7327 86.597 25.9778 87.0873C26.223 87.5775 26.2546 88.1253 26.2546 88.1253V114.368C26.2546 114.368 26.223 114.916 25.9778 115.406C25.7327 115.896 25.6222 116.25 24.3722 116.25H11.2509V86.2429Z" fill="#867D9E"/>
<path d="M67.5013 101.247L67.4875 104.998L94.6436 105.081C94.6621 105.081 94.6805 105.081 94.6989 105.081C95.8747 105.046 97.2269 105.283 98.0761 105.815C98.9254 106.346 99.4772 106.985 99.4602 108.777C99.4354 110.619 98.1425 112.136 96.3045 112.431H96.2627L64.7608 118.009L39.7223 112.541C39.5904 112.513 39.4559 112.499 39.321 112.5H28.082V116.251H39.1272L64.3179 121.746C64.5591 121.799 64.8084 121.803 65.0515 121.76L96.9135 116.127C100.51 115.538 103.173 112.429 103.211 108.805C103.238 105.965 101.86 103.766 100.069 102.645C98.2784 101.524 96.2665 101.28 94.5882 101.33L67.5013 101.247Z" fill="#867D9E"/>
<path d="M28.082 88.126V91.8769H56.9683L64.3594 98.4514L64.3871 98.4656C65.2245 99.1877 65.6996 100.239 65.6882 101.345C65.6688 103.037 64.7049 104.192 63.4182 104.749C62.1316 105.307 60.6521 105.215 59.4043 104.071L59.3766 104.057L54.5461 99.7525C53.7735 99.0659 52.5911 99.134 51.9025 99.9047C51.2066 100.679 51.2749 101.872 52.0547 102.562L56.8714 106.839C59.2096 108.982 62.3973 109.271 64.913 108.182C67.4288 107.092 69.4027 104.557 69.4391 101.386C69.4617 99.1889 68.5075 97.0966 66.8508 95.6555L58.9199 88.5966C58.5762 88.2926 58.133 88.1252 57.6742 88.126L28.082 88.126Z" fill="#867D9E"/>
</g>
<defs>
<clipPath id="clip0_4683_10527">
<rect width="120" height="120" fill="white"/>
</clipPath>
</defs>
</svg>
