<svg width="120" height="120" viewBox="0 0 120 120" fill="none" xmlns="http://www.w3.org/2000/svg">
<path d="M111.797 114C111.335 114 110.875 113.847 110.496 113.548C101.781 106.655 89.5635 106.594 80.7822 113.404L80.5753 113.564C80.2078 113.847 79.7578 114 79.2949 114H8.17207C7.54663 114 6.95383 113.721 6.55519 113.238C6.15631 112.756 5.99383 112.121 6.11191 111.507L22.2003 27.6405C22.3902 26.6517 23.2546 25.9375 24.2602 25.9375H95.384C96.3869 25.9375 97.25 26.6477 97.4427 27.6321L113.855 111.499C114.024 112.361 113.638 113.236 112.889 113.694C112.552 113.899 112.174 114 111.797 114ZM10.7101 109.804H78.5842C87.4674 103.141 99.2285 102.363 108.785 107.436L93.6569 30.1332H25.9942L10.7101 109.804Z" fill="#867D9E"/>
<path d="M111.824 114C110.665 114 109.719 113.061 109.719 111.903C109.719 110.745 110.651 109.805 111.809 109.805C112.982 109.805 113.921 110.745 113.921 111.903C113.921 113.061 112.982 114 111.824 114Z" fill="#867D9E"/>
<path d="M79.2959 114C79.1648 114 79.0321 113.987 78.8982 113.962C77.7606 113.744 77.0149 112.645 77.2333 111.507L80.9036 92.3767C81.1215 91.2379 82.2147 90.4923 83.3591 90.7123C84.4967 90.9293 85.2423 92.0287 85.0239 93.1663L81.3536 112.297C81.1614 113.302 80.282 114 79.2959 114Z" fill="#867D9E"/>
<path d="M90.7995 54.0511C90.6685 54.0511 90.5358 54.0389 90.4021 54.013C89.2645 53.796 88.5188 52.6966 88.7372 51.559L93.3258 27.6403C93.5437 26.5013 94.6405 25.7503 95.7812 25.9754C96.9188 26.1926 97.6645 27.2921 97.4461 28.4297L92.8575 52.3481C92.665 53.3534 91.7852 54.0511 90.7995 54.0511Z" fill="#867D9E"/>
<path d="M71.8778 40.1861C70.7189 40.1861 69.7802 39.2465 69.7802 38.0885V22.6466C69.7802 15.7812 64.1952 10.1957 57.3298 10.1957C50.4648 10.1954 44.879 15.7812 44.879 22.6466V38.0885C44.879 39.2465 43.9402 40.1861 42.7812 40.1861C41.6225 40.1861 40.6836 39.2465 40.6836 38.0885V22.6466C40.6836 13.4678 48.1512 6 57.3298 6C66.5083 6 73.9754 13.4678 73.9754 22.6466V38.0885C73.9754 39.2465 73.0366 40.1861 71.8778 40.1861Z" fill="#867D9E"/>
<path d="M47.3176 40.1864H38.246C37.0873 40.1864 36.1484 39.2468 36.1484 38.0888C36.1484 36.9308 37.0873 35.9912 38.246 35.9912H47.3176C48.4763 35.9912 49.4152 36.9308 49.4152 38.0888C49.4152 39.2468 48.476 40.1864 47.3176 40.1864Z" fill="#867D9E"/>
<path d="M76.4113 40.1864H67.34C66.1811 40.1864 65.2422 39.2468 65.2422 38.0888C65.2422 36.9308 66.1813 35.9912 67.34 35.9912H76.4113C77.5703 35.9912 78.5091 36.9308 78.5091 38.0888C78.5091 39.2468 77.5703 40.1864 76.4113 40.1864Z" fill="#867D9E"/>
<path d="M47.589 103.053H20.3593C19.7295 103.053 19.1338 102.77 18.7347 102.283C18.3368 101.795 18.1782 101.155 18.3039 100.538L26.5191 60.1446C26.7507 59.0096 27.8595 58.2805 28.9923 58.5071C30.1278 58.7379 30.8612 59.8458 30.6298 60.9803L22.9266 98.8573H47.589C48.7479 98.8573 49.6866 99.7969 49.6866 100.955C49.6866 102.113 48.7477 103.053 47.589 103.053Z" fill="#867D9E"/>
<path d="M63.9656 88.8281C60.7424 88.8281 58.3247 88.2612 58.1104 88.2093C57.3925 88.0358 56.8192 87.498 56.6008 86.7917C54.376 79.6205 54.4693 74.352 56.8866 70.6836C58.9988 67.4798 62.817 65.6292 68.5604 65.0268C74.4064 64.4136 77.559 61.9337 77.5904 61.9075C78.1679 61.4446 78.9508 61.3161 79.6436 61.5756C80.337 61.835 80.847 62.4357 80.978 63.1637C82.7396 72.9489 81.3001 80.1093 76.6998 84.444C72.9251 88.0005 67.8577 88.8281 63.9656 88.8281ZM60.2516 84.342C62.9406 84.7531 69.6976 85.2936 73.8352 81.3785C76.8875 78.493 78.0464 73.6389 77.2938 66.9266C75.399 67.8321 72.6136 68.821 68.9977 69.2006C64.5212 69.6689 61.7857 70.8749 60.3894 72.9931C58.8476 75.3324 58.8018 79.1481 60.2516 84.342Z" fill="#867D9E"/>
<path d="M58.6008 88.283C58.294 88.283 57.9835 88.216 57.6892 88.0739C56.6464 87.5702 56.2094 86.315 56.7132 85.2729C59.2884 79.9454 63.4624 76.3019 66.5107 74.1834C67.4611 73.5213 68.7696 73.7574 69.4308 74.7081C70.0917 75.6599 69.856 76.9667 68.9047 77.6277C66.2692 79.4603 62.6697 82.5894 60.4908 87.0974C60.1291 87.8474 59.38 88.283 58.6008 88.283Z" fill="#867D9E"/>
<path d="M68.9562 99.6401C55.1418 99.6401 43.9023 88.4004 43.9023 74.5851C43.9023 60.77 55.1418 49.5303 68.9562 49.5303C82.7711 49.5303 94.0105 60.77 94.0105 74.5851C94.0105 88.4004 82.7711 99.6401 68.9562 99.6401ZM68.9562 53.7257C57.4544 53.7257 48.0975 63.0833 48.0975 74.5851C48.0975 86.0871 57.4547 95.4447 68.9562 95.4447C80.4582 95.4447 89.8153 86.0871 89.8153 74.5851C89.8151 63.0833 80.4582 53.7257 68.9562 53.7257Z" fill="#867D9E"/>
</svg>
