<svg width="120" height="120" viewBox="0 0 120 120" fill="none" xmlns="http://www.w3.org/2000/svg">
<path d="M68.1002 91.9688L63.4689 90.4313L62.2502 84.8063C61.4963 81.4834 59.6335 78.5161 56.9685 76.393C54.3035 74.2698 50.995 73.1173 47.5877 73.125H34.9127C31.4976 73.1201 28.1831 74.2807 25.517 76.4149C22.8509 78.5491 20.993 81.5292 20.2502 84.8625L19.0877 90.15L10.2189 91.1438C7.9153 91.3987 5.78776 92.4979 4.2469 94.2292C2.70605 95.9605 1.86111 98.2012 1.87517 100.519V106.875C1.87517 107.372 2.07272 107.849 2.42435 108.201C2.77598 108.552 3.25289 108.75 3.75017 108.75H11.5127C11.9445 110.339 12.887 111.741 14.195 112.741C15.503 113.741 17.1037 114.283 18.7502 114.283C20.3966 114.283 21.9973 113.741 23.3053 112.741C24.6133 111.741 25.5559 110.339 25.9877 108.75H47.1377C47.5694 110.339 48.512 111.741 49.82 112.741C51.128 113.741 52.7287 114.283 54.3752 114.283C56.0216 114.283 57.6223 113.741 58.9303 112.741C60.2383 111.741 61.1809 110.339 61.6127 108.75H67.5002C67.9975 108.75 68.4744 108.552 68.826 108.201C69.1776 107.849 69.3752 107.372 69.3752 106.875V93.75C69.3762 93.357 69.2536 92.9735 69.0248 92.6539C68.7961 92.3342 68.4726 92.0946 68.1002 91.9688ZM18.7502 110.625C18.0085 110.625 17.2835 110.405 16.6668 109.993C16.0501 109.581 15.5695 108.995 15.2856 108.31C15.0018 107.625 14.9275 106.871 15.0722 106.143C15.2169 105.416 15.5741 104.748 16.0985 104.223C16.623 103.699 17.2912 103.342 18.0186 103.197C18.746 103.052 19.5 103.127 20.1852 103.41C20.8705 103.694 21.4561 104.175 21.8682 104.792C22.2802 105.408 22.5002 106.133 22.5002 106.875C22.5002 107.87 22.1051 108.823 21.4018 109.527C20.6986 110.23 19.7447 110.625 18.7502 110.625ZM54.3752 110.625C53.6335 110.625 52.9085 110.405 52.2918 109.993C51.6751 109.581 51.1945 108.995 50.9106 108.31C50.6268 107.625 50.5525 106.871 50.6972 106.143C50.8419 105.416 51.1991 104.748 51.7235 104.223C52.248 103.699 52.9161 103.342 53.6436 103.197C54.371 103.052 55.125 103.127 55.8102 103.41C56.4955 103.694 57.0811 104.175 57.4932 104.792C57.9052 105.408 58.1252 106.133 58.1252 106.875C58.1252 107.87 57.7301 108.823 57.0268 109.527C56.3236 110.23 55.3697 110.625 54.3752 110.625ZM65.6252 105H61.6127C61.1809 103.411 60.2383 102.009 58.9303 101.009C57.6223 100.009 56.0216 99.4669 54.3752 99.4669C52.7287 99.4669 51.128 100.009 49.82 101.009C48.512 102.009 47.5694 103.411 47.1377 105H25.9877C25.5559 103.411 24.6133 102.009 23.3053 101.009C21.9973 100.009 20.3966 99.4669 18.7502 99.4669C17.1037 99.4669 15.503 100.009 14.195 101.009C12.887 102.009 11.9445 103.411 11.5127 105H5.62517V100.463C5.61674 99.072 6.1237 97.7275 7.04821 96.6888C7.97272 95.65 9.24925 94.9905 10.6314 94.8375L20.8314 93.7125C21.2198 93.6717 21.5858 93.5107 21.8782 93.2519C22.1707 92.993 22.375 92.6493 22.4627 92.2688L23.9252 85.6688C24.4838 83.1721 25.8767 80.9404 27.8741 79.3417C29.8716 77.7431 32.3543 76.873 34.9127 76.875H47.5877C50.1487 76.874 52.6334 77.7467 54.6312 79.349C56.629 80.9514 58.0203 83.1874 58.5752 85.6875L60.0002 92.2875C60.0709 92.603 60.2221 92.8949 60.4389 93.1347C60.6557 93.3745 60.9309 93.5542 61.2377 93.6563L65.5877 95.1L65.6252 105Z" fill="#867D9E"/>
<path d="M53.3081 84.15C52.8895 83.1099 52.1696 82.2185 51.2408 81.5904C50.3121 80.9624 49.2168 80.6262 48.0956 80.625H34.4081C33.2847 80.6277 32.1879 80.9666 31.2588 81.5982C30.3298 82.2298 29.6112 83.1251 29.1956 84.1687L26.3831 91.1813C26.2697 91.4658 26.2278 91.7739 26.2611 92.0784C26.2943 92.3829 26.4016 92.6746 26.5737 92.9281C26.7457 93.1815 26.9772 93.389 27.248 93.5323C27.5188 93.6755 27.8205 93.7503 28.1268 93.75H54.3768C54.6831 93.7503 54.9849 93.6755 55.2556 93.5323C55.5264 93.389 55.7579 93.1815 55.93 92.9281C56.102 92.6746 56.2093 92.3829 56.2426 92.0784C56.2758 91.7739 56.2339 91.4658 56.1206 91.1813L53.3081 84.15ZM39.3768 90H30.9018L32.6831 85.5563C32.8208 85.2103 33.0584 84.9133 33.3656 84.7029C33.6729 84.4925 34.0357 84.3784 34.4081 84.375H39.3768V90ZM43.1268 90V84.375H48.0956C48.4679 84.3784 48.8308 84.4925 49.138 84.7029C49.4452 84.9133 49.6828 85.2103 49.8206 85.5563L51.6018 90H43.1268Z" fill="#867D9E"/>
<path d="M116.25 61.875H86.25C85.7527 61.875 85.2758 62.0725 84.9242 62.4242C84.5725 62.7758 84.375 63.2527 84.375 63.75V95.625H88.125V65.625H114.375V114.375H88.125V103.125H90.9375C91.1861 103.125 91.4246 103.224 91.6004 103.4C91.7762 103.575 91.875 103.814 91.875 104.062C91.875 105.306 92.3689 106.498 93.2479 107.377C94.127 108.256 95.3193 108.75 96.5625 108.75H101.25V105H96.5625C96.3139 105 96.0754 104.901 95.8996 104.725C95.7238 104.55 95.625 104.311 95.625 104.062C95.625 102.819 95.1311 101.627 94.2521 100.748C93.373 99.8689 92.1807 99.375 90.9375 99.375H73.125V103.125H84.375V116.25C84.375 116.747 84.5725 117.224 84.9242 117.576C85.2758 117.927 85.7527 118.125 86.25 118.125H116.25C116.747 118.125 117.224 117.927 117.576 117.576C117.927 117.224 118.125 116.747 118.125 116.25V63.75C118.125 63.2527 117.927 62.7758 117.576 62.4242C117.224 62.0725 116.747 61.875 116.25 61.875Z" fill="#867D9E"/>
<path d="M101.626 72L96.0005 79.5C95.7919 79.7799 95.6656 80.1125 95.6358 80.4603C95.6059 80.8082 95.6738 81.1574 95.8318 81.4687C95.9876 81.778 96.226 82.038 96.5205 82.22C96.8151 82.402 97.1543 82.4989 97.5005 82.5H101.251L97.8755 87L100.876 89.25L106.501 81.75C106.709 81.4701 106.835 81.1375 106.865 80.7897C106.895 80.4418 106.827 80.0926 106.669 79.7812C106.513 79.472 106.275 79.212 105.981 79.03C105.686 78.848 105.347 78.751 105.001 78.75H101.251L104.626 74.25L101.626 72Z" fill="#867D9E"/>
<path d="M40.7055 24.5813C40.2188 25.1019 39.7737 25.6599 39.3743 26.2501C33.9368 21.3751 24.6743 22.7438 24.3743 22.8001C23.9805 22.8587 23.6157 23.0411 23.3325 23.3209C23.0494 23.6007 22.8626 23.9633 22.7993 24.3563C22.7993 24.7688 21.2805 34.5188 26.6618 39.9001C30.1118 43.3688 35.4368 43.9688 38.718 43.9688H40.0868H41.2493C45.093 43.9688 51.2055 43.2563 55.218 39.2438C61.3118 33.1688 59.793 22.2188 59.7368 21.7501C59.6798 21.3476 59.4936 20.9745 59.2061 20.687C58.9186 20.3995 58.5455 20.2133 58.143 20.1563C57.7493 20.0063 46.8743 18.4876 40.7055 24.5813ZM36.4118 33.6376C34.8586 32.4782 33.0848 31.6487 31.1993 31.2001C31.8599 34.1899 33.561 36.8479 35.9993 38.7001V39.9376C33.4809 39.7681 31.0886 38.773 29.193 37.1063C26.2493 34.1626 26.118 28.8376 26.2493 26.2501C28.7993 26.0813 34.1243 26.2501 37.1243 29.1563C37.2555 29.2876 37.3493 29.4376 37.4805 29.5688C36.9848 30.8845 36.6266 32.2481 36.4118 33.6376ZM52.6493 36.5063C49.8931 38.8215 46.405 40.0838 42.8055 40.0688C45.7352 37.0867 48.1606 33.6481 49.9868 29.8876C46.2178 31.7248 42.7728 34.1629 39.7868 37.1063C39.7698 33.4919 41.0392 29.9893 43.368 27.2251C46.9868 23.6063 53.3618 23.4751 56.2305 23.6626C56.3805 26.5126 56.2493 32.8688 52.6493 36.5063Z" fill="#867D9E"/>
<path d="M41.2481 1.875C34.3299 1.87549 27.6545 4.42582 22.4984 9.03838C17.3422 13.6509 14.067 20.0021 13.2989 26.8775C12.5309 33.753 14.3238 40.6703 18.3351 46.307C22.3463 51.9436 28.2943 55.9041 35.0418 57.4313L39.5793 66.4688C39.7367 66.7759 39.9757 67.0336 40.2702 67.2136C40.5646 67.3936 40.903 67.4888 41.2481 67.4888C41.5932 67.4888 41.9316 67.3936 42.226 67.2136C42.5204 67.0336 42.7595 66.7759 42.9168 66.4688L47.4543 57.4313C54.2019 55.9041 60.1499 51.9436 64.1611 46.307C68.1723 40.6703 69.9653 33.753 69.1972 26.8775C68.4292 20.0021 65.154 13.6509 59.9978 9.03838C54.8416 4.42582 48.1663 1.87549 41.2481 1.875ZM45.8231 53.925C45.538 53.9792 45.2693 54.0989 45.0383 54.2746C44.8073 54.4503 44.6202 54.6772 44.4918 54.9375L41.2481 61.425L38.0043 54.9375C37.8759 54.6772 37.6889 54.4503 37.4579 54.2746C37.2268 54.0989 36.9582 53.9792 36.6731 53.925C30.714 52.7863 25.3938 49.4663 21.7523 44.6138C18.1108 39.7614 16.4097 33.7253 16.9816 27.6855C17.5535 21.6456 20.3573 16.0361 24.8448 11.9534C29.3324 7.87067 35.1812 5.6082 41.2481 5.6082C47.315 5.6082 53.1638 7.87067 57.6513 11.9534C62.1389 16.0361 64.9426 21.6456 65.5145 27.6855C66.0864 33.7253 64.3854 39.7614 60.7439 44.6138C57.1024 49.4663 51.7821 52.7863 45.8231 53.925Z" fill="#867D9E"/>
</svg>
