<svg width="120" height="120" viewBox="0 0 120 120" fill="none" xmlns="http://www.w3.org/2000/svg">
<path d="M95.4689 39.3079C95.8589 39.6979 96.3689 39.892 96.8788 39.892C97.3888 39.892 97.8996 39.697 98.2897 39.3079L112.186 25.412C116.166 21.4304 116.166 14.9512 112.186 10.9696C108.204 6.98708 101.724 6.98891 97.7431 10.9696L96.8788 11.832L96.0164 10.9696C92.0329 6.98799 85.5556 6.98799 81.574 10.9696C79.645 12.8986 78.582 15.463 78.582 18.1904C78.582 20.9177 79.645 23.483 81.574 25.4111L95.4689 39.3079ZM84.3947 13.7904C85.6087 12.5764 87.2017 11.9712 88.7947 11.9712C90.3877 11.9712 91.9826 12.5773 93.1957 13.7904L95.4689 16.0645C95.8434 16.4381 96.3506 16.6486 96.8788 16.6486C97.408 16.6486 97.9152 16.4381 98.2897 16.0645L100.564 13.7904C102.992 11.3615 106.939 11.3642 109.365 13.7904C111.791 16.2165 111.791 20.1652 109.365 22.5913L96.8788 35.0763L84.3947 22.5913C83.2192 21.4158 82.571 19.8521 82.571 18.1913C82.5719 16.5287 83.2192 14.965 84.3947 13.7904Z" fill="#867D9E"/>
<path d="M115.582 115.7C98.5317 117.591 85.0103 110.042 84.8748 109.966C84.4161 109.704 83.8723 109.633 83.3624 109.774C83.1472 109.831 61.701 115.58 44.4278 111.746C33.6593 109.351 23.5025 101.766 16.0858 96.2283C15.0897 95.4849 14.1458 94.779 13.2596 94.1318C12.0492 93.2464 10.1248 92.5104 8.42834 91.8603C7.66662 91.5692 6.62292 91.1691 6.39862 91.029C6.20452 90.8771 6.09832 90.6537 6.09832 90.3982V85.7748C6.19445 82.1164 21.5332 25.8234 23.9117 18.6621C23.9703 18.5779 24.1992 18.4122 24.3677 18.3326L54.7229 4.46783L64.5364 17.244C65.0207 17.9059 64.9749 18.8315 64.4293 19.4422L54.732 30.3131C54.0975 31.0254 53.0291 31.1032 52.3663 30.5493L48.4451 26.9339C47.9855 26.511 47.3318 26.3709 46.7193 26.4835C46.105 26.5934 45.5557 27.031 45.2719 27.5876C44.9441 28.2331 41.9751 29.0241 38.9465 29.047L37.9596 28.9472C37.1685 28.8529 36.4013 29.2658 36.015 29.9625C35.6268 30.6592 35.6927 31.5198 36.1798 32.1515C37.0221 33.2401 37.6785 34.1144 38.0502 34.6161L39.9911 67.6089C38.7881 72.2946 37.6858 73.6258 37.4121 73.8922C36.6037 74.1476 36.0168 74.9029 36.0168 75.7947C36.0168 76.896 36.9104 77.7896 38.0117 77.7896C40.274 77.7896 42.1966 74.8169 43.7402 69.0134C59.6054 57.1426 73.4509 68.3459 74.5367 69.2679C79.5757 74.3252 79.8879 77.6843 79.898 77.8335C79.9218 78.9139 80.8053 79.7836 81.8929 79.7836C82.9943 79.7836 83.8879 78.891 83.8879 77.7896C83.8879 77.3309 83.7212 73.3951 78.5586 67.7087C83.4274 61.723 88.9709 58.2752 95.0765 57.5244C105.603 56.228 114.452 63.3069 114.541 63.3774C115.396 64.0732 116.65 63.945 117.346 63.0917C118.042 62.2394 117.916 60.9851 117.065 60.2884C116.653 59.9524 106.858 52.0725 94.6297 53.5602C87.4822 54.4272 81.0662 58.2925 75.5355 65.0583C71.0467 62.0059 58.1762 55.0974 43.7823 64.1327L41.997 33.7912C41.9787 33.4635 41.878 33.1458 41.7068 32.8665C43.4921 32.6551 45.6179 32.1891 47.1597 31.1747L49.7296 33.5431C52.1218 35.5509 55.6256 35.3009 57.7075 32.97L67.4047 22.0981C69.1937 20.094 69.3429 17.0636 67.7288 14.8536L56.9183 0.779171C56.3543 0.0440033 55.3564 -0.205935 54.5077 0.180417L22.7344 14.6933C22.402 14.8389 20.7165 15.6546 20.1626 17.3209C19.0329 20.712 2.10938 81.0663 2.10938 85.7684V90.3991C2.10938 91.885 2.77679 93.2593 3.9386 94.1702C4.51996 94.6252 5.38879 94.9695 7.00286 95.5865C8.32122 96.0919 10.1257 96.7813 10.9048 97.3517C11.7819 97.9925 12.7139 98.6892 13.699 99.4253C21.405 105.18 31.9583 113.061 43.5635 115.64C60.0842 119.311 79.4778 114.873 83.6343 113.826C86.4101 115.26 96.5945 120 109.927 120C111.895 120 113.932 119.897 116.022 119.664C117.117 119.543 117.905 118.556 117.784 117.462C117.662 116.365 116.672 115.571 115.582 115.7Z" fill="#867D9E"/>
<path d="M105.818 91.5311C105.708 90.5332 104.863 89.7568 103.835 89.7568C102.733 89.7568 101.84 90.6504 101.84 91.7518C101.84 93.0839 102.824 97.5947 115.475 99.7022C115.586 99.7205 115.696 99.7297 115.804 99.7297C116.762 99.7297 117.607 99.0384 117.77 98.0634C117.95 96.9767 117.216 95.9495 116.13 95.7673C107.284 94.2933 105.936 91.7966 105.818 91.5311Z" fill="#867D9E"/>
<path d="M67.5126 101.77C41.388 107.365 30.2085 89.4905 29.7462 88.7278C29.1758 87.7857 27.9536 87.4827 27.0115 88.0485C26.0667 88.6152 25.7609 89.8402 26.3276 90.785C26.4594 91.0038 29.6336 96.2141 36.4204 100.653C41.0969 103.71 48.2279 106.824 57.873 106.824C61.0856 106.824 64.5765 106.479 68.3475 105.671C69.4251 105.441 70.1118 104.38 69.881 103.303C69.6494 102.226 68.5901 101.537 67.5126 101.77Z" fill="#867D9E"/>
</svg>
