<svg width="120" height="120" viewBox="0 0 120 120" fill="none" xmlns="http://www.w3.org/2000/svg">
<path d="M14.5523 68.1305C14.0789 65.4656 13.8375 62.7305 13.8375 60C13.8375 51.0703 16.3922 42.4078 21.2227 34.9453C25.9289 27.6773 32.5453 21.8906 40.3617 18.2133C41.0648 17.8828 41.9016 18.1852 42.232 18.8859C42.5625 19.5867 42.2602 20.4258 41.5594 20.7562C26.4281 27.8789 16.6523 43.282 16.6523 60C16.6523 62.5641 16.8773 65.1352 17.3227 67.6383C17.4586 68.4023 16.95 69.1336 16.1836 69.2695C16.1016 69.2836 16.0172 69.2906 15.9352 69.2906C15.2672 69.2906 14.6742 68.8125 14.5523 68.1305ZM78.4383 20.7562C93.5695 27.8789 103.348 43.282 103.348 60C103.348 62.5641 103.123 65.1352 102.677 67.6383C102.541 68.4023 103.05 69.1336 103.816 69.2695C103.898 69.2836 103.983 69.2906 104.065 69.2906C104.733 69.2906 105.326 68.8125 105.448 68.1305C105.921 65.4656 106.162 62.7305 106.162 60C106.162 51.0703 103.608 42.4078 98.7773 34.9453C94.0711 27.6773 87.4547 21.8906 79.6383 18.2133C78.9352 17.8828 78.0984 18.1852 77.768 18.8859C77.4352 19.5891 77.7352 20.4258 78.4383 20.7562ZM76.4695 100.111C71.243 102.26 65.7023 103.348 60 103.348C54.2977 103.348 48.757 102.258 43.5305 100.111C42.8109 99.8156 41.9906 100.158 41.6953 100.877C41.4 101.597 41.7422 102.417 42.4617 102.712C48.0281 105 53.9297 106.16 60 106.16C66.0703 106.16 71.9695 105 77.5383 102.712C78.2555 102.417 78.6 101.595 78.3047 100.877C78.0094 100.158 77.1867 99.8156 76.4695 100.111ZM52.1109 75.9656H67.8891C68.6648 75.9656 69.2953 75.3352 69.2953 74.5594C69.2953 73.7836 68.6648 73.1531 67.8891 73.1531H52.1109C51.3352 73.1531 50.7047 73.7836 50.7047 74.5594C50.7047 75.3352 51.3352 75.9656 52.1109 75.9656ZM48.1992 86.4469C48.9047 86.775 49.7391 86.468 50.0672 85.7648L50.9156 83.9391C51.1477 83.4375 51.6 83.1492 52.1531 83.1492H67.8445C68.3977 83.1492 68.85 83.4375 69.082 83.9391L69.9305 85.7648C70.1695 86.2781 70.6758 86.5781 71.2078 86.5781C71.407 86.5781 71.6086 86.5359 71.7984 86.4469C72.5016 86.1188 72.8086 85.2844 72.4805 84.5789L71.632 82.7531C70.9383 81.2625 69.4875 80.3344 67.8422 80.3344H52.1508C50.5055 80.3344 49.0547 81.2602 48.3609 82.7531L47.5125 84.5789C47.1891 85.2844 47.4961 86.1211 48.1992 86.4469ZM82.3664 89.2055V91.0945C82.3664 92.6156 81.1289 93.8531 79.6078 93.8531H72.1031C70.582 93.8531 69.3445 92.6156 69.3445 91.0945V89.5852H50.6531V91.0945C50.6531 92.6156 49.4156 93.8531 47.8945 93.8531H40.3898C38.8688 93.8531 37.6312 92.6156 37.6312 91.0945V89.2055C35.557 88.4156 34.0359 86.4703 33.8883 84.1383L33.1477 72.4453C33.1266 72.1078 33.2273 71.775 33.4312 71.5055C34.0148 70.7391 34.6992 69.9844 35.4891 69.2344C35.1797 68.7188 35.0063 68.1258 35.0063 67.5047V66.2953C35.0063 63.7711 37.0617 61.7156 39.5859 61.7156H41.6344L43.9617 55.125C44.5242 53.5336 45.975 52.507 47.6625 52.507H72.3281C74.0156 52.507 75.4688 53.5336 76.0289 55.125L78.3563 61.7156H80.4047C82.9289 61.7156 84.9844 63.7711 84.9844 66.2953V67.5047C84.9844 68.1234 84.8086 68.7188 84.5016 69.2344C85.2914 69.982 85.9758 70.7391 86.5594 71.5055C86.7633 71.775 86.8641 72.1078 86.843 72.4453L86.1023 84.1383C85.9617 86.4703 84.4406 88.4156 82.3664 89.2055ZM83.8711 74.9742H75.9937C74.7539 74.9742 73.7438 75.9844 73.7438 77.2242C73.7438 78.4641 74.7539 79.4742 75.9937 79.4742H83.5852L83.8711 74.9742ZM79.3547 64.5281L79.7227 65.5711C80.6086 66.1406 81.4266 66.7078 82.1766 67.275V66.2977C82.1766 65.3227 81.3844 64.5305 80.4094 64.5305H79.3547V64.5281ZM43.4297 65.0883H76.5703L73.3828 56.0625C73.2188 55.5984 72.8273 55.3195 72.3328 55.3195H47.6672C47.175 55.3195 46.7812 55.5961 46.6172 56.0625L43.4297 65.0883ZM37.8234 67.275C38.5734 66.7078 39.3914 66.1406 40.2773 65.5711L40.6453 64.5281H39.5906C38.6156 64.5281 37.8234 65.3203 37.8234 66.2953V67.275ZM36.4148 79.4742H44.0062C45.2461 79.4742 46.2562 78.4641 46.2562 77.2242C46.2562 75.9844 45.2461 74.9742 44.0062 74.9742H36.1289L36.4148 79.4742ZM36.6984 83.9602C36.7992 85.5375 38.1141 86.7727 39.6937 86.7727H49.2469H70.7508H80.3039C81.8836 86.7727 83.2008 85.5375 83.2992 83.9602L83.4047 82.2867H75.9891C73.1977 82.2867 70.9266 80.0156 70.9266 77.2242C70.9266 74.4328 73.1977 72.1617 75.9891 72.1617H83.4398C82.1391 70.7508 80.3625 69.3234 78.143 67.9008H41.8523C39.6328 69.3234 37.8586 70.7508 36.5555 72.1617H44.0062C46.7977 72.1617 49.0687 74.4328 49.0687 77.2242C49.0687 80.0156 46.7977 82.2867 44.0062 82.2867H36.5906L36.6984 83.9602ZM47.8406 89.5852H40.4437V91.0406H47.8406V89.5852ZM79.5539 89.5852H72.157V91.0406H79.5539V89.5852ZM50.9062 12.6094C50.9062 7.59609 54.9867 3.51562 60 3.51562C65.0133 3.51562 69.0938 7.59609 69.0938 12.6094C69.0938 17.6227 65.0133 21.7031 60 21.7031C54.9867 21.7031 50.9062 17.6227 50.9062 12.6094ZM53.7188 12.6094C53.7188 16.0734 56.5359 18.8906 60 18.8906C63.4641 18.8906 66.2812 16.0734 66.2812 12.6094C66.2812 9.14531 63.4641 6.32812 60 6.32812C56.5359 6.32812 53.7188 9.14531 53.7188 12.6094ZM44.1375 42.6C43.8727 42.3352 43.725 41.9789 43.725 41.6063V36.6211C43.725 29.9062 49.1883 24.443 55.9031 24.443H64.0922C70.807 24.443 76.2703 29.9062 76.2703 36.6211V41.6063C76.2703 42.382 75.6398 43.0125 74.8641 43.0125H45.1289C44.7609 43.0125 44.4023 42.8648 44.1375 42.6ZM46.5398 40.2H73.4625V36.6211C73.4625 31.4555 69.2602 27.2555 64.0969 27.2555H55.9078C50.7422 27.2555 46.5422 31.4578 46.5422 36.6211V40.2H46.5398ZM100.212 76.9875C105.225 76.9875 109.305 81.068 109.305 86.0813C109.305 91.0945 105.225 95.175 100.212 95.175C95.1984 95.175 91.118 91.0945 91.118 86.0813C91.118 81.068 95.1961 76.9875 100.212 76.9875ZM100.212 79.8C96.7477 79.8 93.9305 82.6172 93.9305 86.0813C93.9305 89.5453 96.7477 92.3625 100.212 92.3625C103.676 92.3625 106.493 89.5453 106.493 86.0813C106.493 82.6172 103.673 79.8 100.212 79.8ZM116.484 110.093V115.078C116.484 115.854 115.854 116.484 115.078 116.484H85.343C84.5672 116.484 83.9367 115.854 83.9367 115.078V110.093C83.9367 103.378 89.4 97.9148 96.1148 97.9148H104.304C111.021 97.9125 116.484 103.376 116.484 110.093ZM113.672 110.093C113.672 104.927 109.47 100.727 104.306 100.727H96.1172C90.9516 100.727 86.7516 104.93 86.7516 110.093V113.672H113.672V110.093ZM10.6945 86.0813C10.6945 81.068 14.775 76.9875 19.7883 76.9875C24.8016 76.9875 28.882 81.068 28.882 86.0813C28.882 91.0945 24.8016 95.175 19.7883 95.175C14.775 95.175 10.6945 91.0969 10.6945 86.0813ZM13.507 86.0813C13.507 89.5453 16.3242 92.3625 19.7883 92.3625C23.2523 92.3625 26.0695 89.5453 26.0695 86.0813C26.0695 82.6172 23.2523 79.8 19.7883 79.8C16.3266 79.8 13.507 82.6172 13.507 86.0813ZM36.0633 110.093V115.078C36.0633 115.854 35.4328 116.484 34.657 116.484H4.92188C4.14609 116.484 3.51562 115.854 3.51562 115.078V110.093C3.51562 103.378 8.97891 97.9148 15.6937 97.9148H23.8828C30.6 97.9125 36.0633 103.376 36.0633 110.093ZM33.2508 110.093C33.2508 104.927 29.0484 100.727 23.8852 100.727H15.6937C10.5281 100.727 6.32812 104.93 6.32812 110.093V113.672H33.2508V110.093Z" fill="#867D9E"/>
</svg>
