<svg width="120" height="120" viewBox="0 0 120 120" fill="none" xmlns="http://www.w3.org/2000/svg">
<path d="M31.8766 55.3125C32.3738 55.3125 32.8508 55.115 33.2024 54.7633C33.554 54.4117 33.7516 53.9348 33.7516 53.4375C33.7516 52.9402 33.554 52.4633 33.2024 52.1117C32.8508 51.76 32.3738 51.5625 31.8766 51.5625H25.8203C25.323 51.5625 24.8461 51.76 24.4945 52.1117C24.1429 52.4633 23.9453 52.9402 23.9453 53.4375C23.9453 53.9348 24.1429 54.4117 24.4945 54.7633C24.8461 55.115 25.323 55.3125 25.8203 55.3125H31.8766Z" fill="#867D9E"/>
<path d="M16.3672 64.6875C16.3672 65.1848 16.5647 65.6617 16.9164 66.0133C17.268 66.365 17.7449 66.5625 18.2422 66.5625H30.3547C30.852 66.5625 31.3289 66.365 31.6805 66.0133C32.0321 65.6617 32.2297 65.1848 32.2297 64.6875C32.2297 64.1902 32.0321 63.7133 31.6805 63.3617C31.3289 63.01 30.852 62.8125 30.3547 62.8125H18.2422C17.7449 62.8125 17.268 63.01 16.9164 63.3617C16.5647 63.7133 16.3672 64.1902 16.3672 64.6875Z" fill="#867D9E"/>
<path d="M10.3125 75.9375C10.3125 76.4348 10.51 76.9117 10.8617 77.2633C11.2133 77.615 11.6902 77.8125 12.1875 77.8125H28.8469C29.3442 77.8125 29.8211 77.615 30.1727 77.2633C30.5243 76.9117 30.7219 76.4348 30.7219 75.9375C30.7219 75.4402 30.5243 74.9633 30.1727 74.6117C29.8211 74.26 29.3442 74.0625 28.8469 74.0625H12.1875C11.6902 74.0625 11.2133 74.26 10.8617 74.6117C10.51 74.9633 10.3125 75.4402 10.3125 75.9375Z" fill="#867D9E"/>
<path d="M92.2873 37.2753C90.7897 34.5939 89.1043 32.0218 87.2435 29.5784C87.1443 29.4301 87.0895 29.2565 87.0855 29.078C87.0816 28.8996 87.1287 28.7237 87.2212 28.5711C87.3138 28.4185 87.448 28.2955 87.608 28.2165C87.7681 28.1375 87.9474 28.1059 88.1248 28.1253C88.6221 28.1253 89.099 27.9278 89.4506 27.5761C89.8022 27.2245 89.9998 26.7476 89.9998 26.2503V19.6878C89.9998 19.1905 89.8022 18.7136 89.4506 18.362C89.099 18.0103 88.6221 17.8128 88.1248 17.8128H69.3748C69.001 17.8095 68.6397 17.9466 68.3623 18.1972C62.7279 8.91593 55.3123 3.98468 49.3967 5.95343C45.2154 7.33155 42.431 11.7191 41.5498 18.3003C41.0488 22.9119 41.2638 27.5732 42.1873 32.1191C42.5529 33.9941 43.0217 35.8691 43.5935 37.7441L39.8998 36.6378C39.6256 36.5576 39.3367 36.5412 39.0552 36.5897C38.7737 36.6382 38.507 36.7504 38.2754 36.9178C38.0439 37.0851 37.8536 37.3031 37.7192 37.5552C37.5848 37.8072 37.5097 38.0867 37.4998 38.3722L35.6248 88.2753C33.3998 88.6188 31.3135 89.5719 29.5972 91.0289C27.8808 92.4858 26.6016 94.3897 25.9014 96.5294C25.2011 98.6691 25.1073 100.961 25.6301 103.151C26.153 105.34 27.2722 107.343 28.8636 108.935C30.455 110.528 32.4564 111.648 34.6458 112.172C36.8352 112.697 39.1271 112.604 41.2673 111.906C43.4074 111.207 45.3122 109.929 46.7703 108.214C48.2284 106.498 49.1829 104.413 49.5279 102.188H77.9717C78.4612 105.196 80.0602 107.912 82.4534 109.799C84.8465 111.687 87.86 112.609 90.8997 112.385C93.9393 112.16 96.7844 110.804 98.8739 108.585C100.963 106.366 102.146 103.445 102.187 100.397L104.062 38.5222C104.075 38.2238 104.016 37.9267 103.89 37.6557C103.765 37.3847 103.576 37.1476 103.34 36.9642C103.105 36.7808 102.829 36.6563 102.535 36.6012C102.242 36.546 101.939 36.5618 101.653 36.6472L95.8967 38.3628L92.2873 37.2753ZM71.2498 21.5628H86.2498V24.3753C85.5706 24.6706 84.9666 25.1152 84.4828 25.6759C83.9989 26.2366 83.6476 26.8991 83.4548 27.6142C83.2621 28.3294 83.2329 29.0787 83.3695 29.8066C83.506 30.5346 83.8048 31.2224 84.2435 31.8191C85.6123 33.6941 86.8123 35.4191 87.806 37.0222L83.3248 38.3534L77.5873 36.6378C77.2386 36.5341 76.8672 36.5341 76.5185 36.6378L70.7717 38.3534L69.8342 38.0816C70.931 36.1409 72.1779 34.1253 73.7717 31.8003C74.2765 31.0576 74.5701 30.1918 74.6213 29.2952C74.6725 28.3986 74.4793 27.505 74.0623 26.7097C73.4701 25.5904 72.459 24.7512 71.2498 24.3753V21.5628ZM50.5685 9.51593C55.5092 7.88468 62.6998 14.0628 67.4998 24.3753V26.2503C67.4998 26.7476 67.6973 27.2245 68.049 27.5761C68.4006 27.9278 68.8775 28.1253 69.3748 28.1253H70.3123C71.0435 28.1253 71.1467 29.0628 70.7904 29.5503C68.9154 32.2597 67.406 34.7534 66.1873 36.9847L65.0248 36.6378C64.6761 36.5341 64.3047 36.5341 63.956 36.6378L58.2092 38.3534L52.4998 36.6378C52.1482 36.5323 51.7733 36.5323 51.4217 36.6378L47.531 37.7909C46.9498 36.0097 46.4717 34.2191 46.0873 32.4659C55.5467 26.1659 60.2717 24.3753 60.3185 24.3753C60.6098 24.2703 60.8706 24.0949 61.0776 23.8646C61.2846 23.6343 61.4313 23.3563 61.5046 23.0555C61.578 22.7546 61.5757 22.4403 61.498 22.1406C61.4202 21.8409 61.2695 21.5651 61.0592 21.3378C60.8248 21.0941 55.6873 15.7128 45.1217 20.6347C45.3842 16.4722 46.6967 10.7909 50.5685 9.51593ZM55.4154 22.5003C51.9731 24.3034 48.625 26.281 45.3842 28.4253C45.2154 27.1972 45.1123 25.9972 45.056 24.8253C49.8842 22.2097 53.2779 22.0503 55.4154 22.5003ZM37.4998 108.75C35.831 108.75 34.1997 108.255 32.8122 107.328C31.4246 106.401 30.3432 105.083 29.7046 103.542C29.0659 102 28.8989 100.303 29.2244 98.6667C29.55 97.03 30.3536 95.5266 31.5336 94.3466C32.7136 93.1666 34.217 92.363 35.8537 92.0374C37.4904 91.7119 39.1869 91.879 40.7287 92.5176C42.2704 93.1562 43.5882 94.2376 44.5153 95.6252C45.4424 97.0127 45.9373 98.644 45.9373 100.313C45.9373 102.551 45.0483 104.697 43.466 106.279C41.8837 107.861 39.7376 108.75 37.4998 108.75ZM89.9998 108.75C88.331 108.75 86.6997 108.255 85.3122 107.328C83.9246 106.401 82.8432 105.083 82.2046 103.542C81.5659 102 81.3989 100.303 81.7244 98.6667C82.05 97.03 82.8536 95.5266 84.0336 94.3466C85.2136 93.1666 86.717 92.363 88.3537 92.0374C89.9904 91.7119 91.6869 91.879 93.2287 92.5176C94.7704 93.1562 96.0882 94.2376 97.0153 95.6252C97.9424 97.0127 98.4373 98.644 98.4373 100.313C98.4373 102.551 97.5483 104.697 95.966 106.279C94.3837 107.861 92.2376 108.75 89.9998 108.75ZM100.237 40.9784L98.6904 91.7909C97.1075 90.1845 95.11 89.0487 92.92 88.51C90.73 87.9714 88.4335 88.0509 86.286 88.7399C84.1386 89.4288 82.2244 90.7001 80.7565 92.4123C79.2886 94.1244 78.3246 96.2103 77.9717 98.4378H49.5279C49.1292 95.8969 47.9369 93.5473 46.1216 91.7253C44.3063 89.9032 41.9611 88.7022 39.4217 88.2941L41.156 40.9316L45.1217 42.1128C45.4704 42.2165 45.8417 42.2165 46.1904 42.1128L51.9279 40.3972L57.6748 42.1128C58.0264 42.2183 58.4013 42.2183 58.7529 42.1128L64.4904 40.3972L70.2373 42.1128C70.586 42.2165 70.9573 42.2165 71.306 42.1128L77.0529 40.3972L82.7904 42.1128C83.142 42.2183 83.5169 42.2183 83.8685 42.1128L89.6154 40.3972L95.3623 42.1128C95.711 42.2165 96.0823 42.2165 96.431 42.1128L100.237 40.9784Z" fill="#867D9E"/>
<path d="M81.5625 47.8125C81.0652 47.8125 80.5883 48.01 80.2367 48.3617C79.885 48.7133 79.6875 49.1902 79.6875 49.6875V61.275C79.6875 63.7614 78.6998 66.146 76.9416 67.9041C75.1835 69.6623 72.7989 70.65 70.3125 70.65C67.8261 70.65 65.4415 69.6623 63.6834 67.9041C61.9252 66.146 60.9375 63.7614 60.9375 61.275V49.6875C60.9375 49.1902 60.74 48.7133 60.3883 48.3617C60.0367 48.01 59.5598 47.8125 59.0625 47.8125C58.5652 47.8125 58.0883 48.01 57.7367 48.3617C57.385 48.7133 57.1875 49.1902 57.1875 49.6875V61.275C57.1875 64.756 58.5703 68.0944 61.0317 70.5558C63.4931 73.0172 66.8315 74.4 70.3125 74.4C73.7935 74.4 77.1319 73.0172 79.5933 70.5558C82.0547 68.0944 83.4375 64.756 83.4375 61.275V49.6875C83.4375 49.1902 83.24 48.7133 82.8883 48.3617C82.5367 48.01 82.0598 47.8125 81.5625 47.8125Z" fill="#867D9E"/>
</svg>
