<svg width="120" height="120" viewBox="0 0 120 120" fill="none" xmlns="http://www.w3.org/2000/svg">
<g clip-path="url(#clip0_4683_10634)">
<path d="M1.75781 27.2395V17.2411C1.75781 12.7107 5.43043 9.03809 9.96086 9.03809H19.9571" stroke="#867D9E" stroke-width="4" stroke-miterlimit="10" stroke-linecap="round" stroke-linejoin="round"/>
<path d="M68.4922 9.03809H51.5039" stroke="#867D9E" stroke-width="4" stroke-miterlimit="10" stroke-linecap="round" stroke-linejoin="round"/>
<path d="M100.039 9.03809H110.038C114.566 9.03809 118.241 12.7107 118.241 17.2411V27.2395" stroke="#867D9E" stroke-width="4" stroke-miterlimit="10" stroke-linecap="round" stroke-linejoin="round"/>
<path d="M92.7617 9.03809H75.7734" stroke="#867D9E" stroke-width="4" stroke-miterlimit="10" stroke-linecap="round" stroke-linejoin="round"/>
<path d="M44.2266 9.03809H27.2383" stroke="#867D9E" stroke-width="4" stroke-miterlimit="10" stroke-linecap="round" stroke-linejoin="round"/>
<path d="M24.8936 19.9592H22.3008C21.0063 19.9592 19.957 18.9099 19.957 17.6155V4.10252C19.957 2.80808 21.0063 1.75879 22.3008 1.75879H24.8934C26.1878 1.75879 27.2371 2.80808 27.2371 4.10252V17.6155C27.2374 18.9099 26.1881 19.9592 24.8936 19.9592Z" stroke="#867D9E" stroke-width="4" stroke-miterlimit="10" stroke-linecap="round" stroke-linejoin="round"/>
<path d="M49.1629 19.9592H46.5703C45.2758 19.9592 44.2266 18.9099 44.2266 17.6155V4.10252C44.2266 2.80808 45.2758 1.75879 46.5703 1.75879H49.1629C50.4574 1.75879 51.5066 2.80808 51.5066 4.10252V17.6155C51.5066 18.9099 50.4574 19.9592 49.1629 19.9592Z" stroke="#867D9E" stroke-width="4" stroke-miterlimit="10" stroke-linecap="round" stroke-linejoin="round"/>
<path d="M73.4285 19.9592H70.8359C69.5415 19.9592 68.4922 18.9099 68.4922 17.6155V4.10252C68.4922 2.80808 69.5415 1.75879 70.8359 1.75879H73.4285C74.723 1.75879 75.7723 2.80808 75.7723 4.10252V17.6155C75.7723 18.9099 74.723 19.9592 73.4285 19.9592Z" stroke="#867D9E" stroke-width="4" stroke-miterlimit="10" stroke-linecap="round" stroke-linejoin="round"/>
<path d="M97.6981 19.9592H95.1054C93.811 19.9592 92.7617 18.9099 92.7617 17.6155V4.10252C92.7617 2.80808 93.811 1.75879 95.1054 1.75879H97.6981C98.9925 1.75879 100.042 2.80808 100.042 4.10252V17.6155C100.042 18.9099 98.9925 19.9592 97.6981 19.9592Z" stroke="#867D9E" stroke-width="4" stroke-miterlimit="10" stroke-linecap="round" stroke-linejoin="round"/>
<path d="M39.9844 57.7075C40.2359 46.869 49.1005 38.1602 59.9993 38.1602C71.0563 38.1602 80.0199 47.1237 80.0199 58.1807C80.0199 69.2377 71.0563 78.2013 59.9993 78.2013C51.8254 78.2013 44.7953 73.3027 41.6852 66.2811" stroke="#867D9E" stroke-width="4" stroke-miterlimit="10" stroke-linecap="round" stroke-linejoin="round"/>
<path d="M63.9437 49.4392C63.9437 49.4392 61.6995 47.3694 58.2404 48.4114C55.0642 49.3681 54.2756 53.7141 56.4339 55.407C57.6733 56.3789 59.5379 57.1781 62.0511 58.0666C67.676 60.0548 65.5967 67.9874 59.875 68.0256C57.6421 68.0404 56.5982 67.8988 54.6367 66.6156" stroke="#867D9E" stroke-width="4" stroke-miterlimit="10" stroke-linecap="round" stroke-linejoin="round"/>
<path d="M59.875 68.2598V70.9208" stroke="#867D9E" stroke-width="4" stroke-miterlimit="10" stroke-linecap="round" stroke-linejoin="round"/>
<path d="M59.875 45.4404V47.8838" stroke="#867D9E" stroke-width="4" stroke-miterlimit="10" stroke-linecap="round" stroke-linejoin="round"/>
<path d="M36.8438 54.0957L39.9775 58.1799L44.0617 55.0461" stroke="#867D9E" stroke-width="4" stroke-miterlimit="10" stroke-linecap="round" stroke-linejoin="round"/>
<path d="M14.3293 27.2393H1.75781V102.759C1.75781 107.289 5.43043 110.962 9.96086 110.962H65.687" stroke="#867D9E" stroke-width="4" stroke-miterlimit="10" stroke-linecap="round" stroke-linejoin="round"/>
<path d="M118.24 54.5144V27.2393H22.5312" stroke="#867D9E" stroke-width="4" stroke-miterlimit="10" stroke-linecap="round" stroke-linejoin="round"/>
<path d="M89.7422 110.962H110.037C114.568 110.962 118.241 107.289 118.241 102.759V62.7178" stroke="#867D9E" stroke-width="4" stroke-miterlimit="10" stroke-linecap="round" stroke-linejoin="round"/>
<path d="M47.6062 85.4805H44.1445C42.8501 85.4805 41.8008 86.5298 41.8008 87.8242V101.337C41.8008 102.632 42.8501 103.681 44.1445 103.681H62.0286" stroke="#867D9E" stroke-width="4" stroke-miterlimit="10" stroke-linecap="round" stroke-linejoin="round"/>
<path d="M78.201 96.6134V87.8242C78.201 86.5298 77.1517 85.4805 75.8573 85.4805H56.043" stroke="#867D9E" stroke-width="4" stroke-miterlimit="10" stroke-linecap="round" stroke-linejoin="round"/>
<path d="M77.0361 97.2493L69.7621 100.886L62.6461 93.7703C61.2602 92.3845 59.0025 92.257 57.5529 93.5762C56.0051 94.9848 55.9627 97.3827 57.4257 98.8456L68.5413 109.961C68.9104 110.33 68.6491 110.962 68.1269 110.962H65.6875C63.0987 110.962 61.0001 113.06 61.0001 115.649V117.07C61.0001 117.717 61.5249 118.242 62.172 118.242H80.9033V118.236C83.127 118.16 85.3282 117.274 87.0258 115.576C90.5796 112.023 90.5796 106.26 87.0258 102.707L82.4468 98.1278C81.0202 96.7007 78.8408 96.347 77.0361 97.2493Z" stroke="#867D9E" stroke-width="4" stroke-miterlimit="10" stroke-linecap="round" stroke-linejoin="round"/>
<path d="M73.8431 104.968L69.7617 100.887" stroke="#867D9E" stroke-width="4" stroke-miterlimit="10" stroke-linecap="round" stroke-linejoin="round"/>
</g>
<defs>
<clipPath id="clip0_4683_10634">
<rect width="120" height="120" fill="white"/>
</clipPath>
</defs>
</svg>
