<svg width="120" height="120" viewBox="0 0 120 120" fill="none" xmlns="http://www.w3.org/2000/svg">
<path d="M116.25 35.625V7.5H98.9445C98.2287 7.50069 97.5195 7.3641 96.8552 7.09763L90.1627 4.42086C89.0556 3.97662 87.8735 3.74889 86.6805 3.75H58.3273C56.6282 3.75019 54.961 4.21196 53.5039 5.08599L22.5423 23.663C21.5023 24.2879 20.6459 25.1768 20.0601 26.2394C19.4742 27.302 19.1797 28.5006 19.2064 29.7137C19.2331 30.9268 19.58 32.1113 20.212 33.1471C20.844 34.1829 21.7386 35.0332 22.8052 35.6118C22.3112 36.0542 21.8345 36.5202 21.375 37.01C17.2278 41.5034 14.9485 47.4081 15.0008 53.5226C15.0531 59.6372 17.4331 65.502 21.6566 69.9239L30.6496 79.2229C30.0502 79.3552 29.4609 79.5292 28.8858 79.7436L16.5351 84.375H3.75V112.5H21.0555C21.7713 112.499 22.4805 112.636 23.1448 112.902L29.8373 115.579C30.9444 116.023 32.1265 116.251 33.3195 116.25H61.6727C63.3718 116.25 65.039 115.788 66.4961 114.914L97.5103 96.3055C98.9934 95.4156 100.083 93.9957 100.559 92.3329C101.035 90.6701 100.862 88.8886 100.075 87.3487C99.2873 85.8087 97.9445 84.6253 96.3178 84.0377C94.6911 83.4501 92.9019 83.5022 91.3122 84.1834L79.777 89.1271L98.3434 69.9239C102.515 65.556 104.89 59.7782 104.996 53.7392C105.103 47.7002 102.933 41.8424 98.9173 37.3304L103.465 35.625H116.25ZM105 11.25H112.5V31.875H105V11.25ZM15 108.75H7.5V88.125H15V108.75ZM92.7894 87.6304C93.5054 87.3235 94.3112 87.3 95.0438 87.5646C95.7765 87.8292 96.3813 88.3622 96.7359 89.0558C97.0905 89.7493 97.1685 90.5517 96.9541 91.3006C96.7396 92.0495 96.2488 92.6889 95.5808 93.0897L64.5667 111.698C63.6924 112.223 62.6921 112.5 61.6727 112.5H33.3195C32.6037 112.501 31.8945 112.364 31.2302 112.098L24.5377 109.421C23.4306 108.977 22.2485 108.749 21.0555 108.75H18.75V87.5494L30.2023 83.2546C31.4804 82.7728 32.849 82.5783 34.2107 82.6849C39.0321 83.055 47.8473 83.7298 52.7135 84.0921C53.3842 84.1419 54.0272 84.3804 54.5681 84.78C55.1091 85.1796 55.526 85.7241 55.7707 86.3505L55.8147 86.4604C56.0075 86.9426 56.0897 87.462 56.0549 87.9803C56.0202 88.4985 55.8696 89.0023 55.6141 89.4545C55.3586 89.9068 55.0048 90.2958 54.5788 90.593C54.1529 90.8902 53.6656 91.088 53.153 91.1716L37.1981 93.7745L37.8019 97.4755L41.2827 96.9077L52.5657 101.718C53.7315 102.212 54.985 102.466 56.2512 102.465C57.5174 102.464 58.7704 102.207 59.9352 101.711L92.7894 87.6304ZM101.249 53.4817C101.236 58.6432 99.2287 63.5999 95.6477 67.3171L70.8707 92.9441L58.458 98.2638C57.7592 98.5618 57.0074 98.7158 56.2477 98.7166C55.488 98.7173 54.7359 98.5648 54.0365 98.2681L48.1986 95.7795L53.7568 94.8727C54.8237 94.6986 55.8378 94.2871 56.7244 93.6686C57.6109 93.0501 58.3472 92.2404 58.879 91.2993C59.4107 90.3582 59.7243 89.3096 59.7965 88.231C59.8688 87.1525 59.6979 86.0715 59.2964 85.0678L59.2525 84.958C58.7497 83.6779 57.895 82.5663 56.7872 81.7514C55.6795 80.9365 54.3638 80.4515 52.9921 80.3526C48.5055 80.0186 40.6598 79.4185 35.6869 79.0371L24.3523 67.3169C20.7974 63.5863 18.7948 58.6431 18.7508 53.4901C18.7068 48.3372 20.6247 43.3605 24.1154 39.5698C25.7975 37.7642 27.8292 36.3196 30.0871 35.3237L30.268 35.2456C32.5534 34.2733 35.0093 33.7651 37.4929 33.7507C37.5483 33.7502 37.603 33.75 37.6584 33.75C40.2513 33.7536 42.8173 34.2764 45.2049 35.2877C47.5926 36.2989 49.7535 37.7781 51.5602 39.638L60 48.3648L68.3347 39.7466C73.3461 40.1224 81.0934 40.7157 85.5022 41.0541C85.843 41.0802 86.1827 41.0932 86.5212 41.0932C88.0901 41.0934 89.6462 40.8099 91.1142 40.2564L95.0844 38.7677C95.3587 39.0275 95.6273 39.2941 95.8848 39.5698C99.3958 43.3445 101.317 48.327 101.249 53.4817ZM60.7036 34.9322L60.7475 35.0421C61.3776 36.6365 62.5467 37.9597 64.0515 38.7813L60 42.9705L54.256 37.031C50.8557 33.5267 46.4354 31.1859 41.6259 30.3427L63.7546 20.7903L71.8014 24.2205L66.2432 25.1273C65.1763 25.3014 64.1622 25.7129 63.2757 26.3314C62.3891 26.9499 61.6528 27.7596 61.121 28.7007C60.5893 29.6419 60.2757 30.6904 60.2035 31.769C60.1312 32.8475 60.3021 33.9285 60.7036 34.9322ZM101.25 32.4506L89.7977 36.7454C88.5197 37.2278 87.151 37.4223 85.7893 37.3151C80.9679 36.945 72.1527 36.2702 67.2865 35.9079C66.6158 35.8581 65.9728 35.6196 65.4319 35.22C64.8909 34.8204 64.474 34.276 64.2293 33.6495L64.1853 33.5397C63.9925 33.0574 63.9103 32.538 63.945 32.0198C63.9798 31.5015 64.1304 30.9977 64.3859 30.5455C64.6414 30.0933 64.9952 29.7042 65.4211 29.407C65.8471 29.1098 66.3344 28.912 66.847 28.8284L82.8019 26.2255L82.1981 22.5245L78.7173 23.0924L63.7454 16.7098L29.1772 31.632C28.8985 31.745 28.6229 31.8652 28.3494 31.9894L27.3212 32.4332C26.5924 32.7479 25.7714 32.7737 25.0243 32.5056C24.2773 32.2374 23.6601 31.6953 23.2978 30.9891C22.9355 30.2828 22.8552 29.4653 23.0732 28.7021C23.2912 27.9389 23.7912 27.2871 24.4718 26.8787L55.4333 8.30155C56.3076 7.77713 57.3079 7.50008 58.3273 7.5H86.6805C87.3963 7.49932 88.1055 7.63591 88.7698 7.90238L95.4623 10.5792C96.5694 11.0234 97.7515 11.2511 98.9445 11.25H101.25V32.4506Z" fill="#867D9E"/>
<path d="M50.625 48.75H39.375V56.25H31.875V67.5H39.375V75H50.625V67.5H58.125V56.25H50.625V48.75ZM54.375 60V63.75H46.875V71.25H43.125V63.75H35.625V60H43.125V52.5H46.875V60H54.375Z" fill="#867D9E"/>
<path d="M77.5157 55.4111L75.1582 54.2324C75.7033 53.7084 76.1365 53.0792 76.4316 52.383C76.7267 51.6868 76.8775 50.938 76.875 50.1819V49.1922C76.875 48.2334 76.6299 47.2905 76.163 46.4531C75.6961 45.6157 75.0229 44.9115 74.2073 44.4075C73.3917 43.9034 72.4608 43.6162 71.503 43.5731C70.5451 43.53 69.5922 43.7324 68.7346 44.1611H68.7344L68.7342 44.1614C67.7976 44.6257 67.0099 45.3431 66.4604 46.2323C65.9108 47.1215 65.6214 48.1469 65.625 49.1922V50.1819C65.6225 50.938 65.7734 51.6868 66.0685 52.383C66.3635 53.0792 66.7967 53.7084 67.3419 54.2324L64.9846 55.4111C64.048 55.8754 63.2602 56.5929 62.7105 57.4821C62.1609 58.3713 61.8715 59.3968 61.875 60.4422V68.6584L65.625 70.5334V82.4995H76.875V70.5334L80.625 68.6584V60.4422C80.6286 59.3968 80.3392 58.3714 79.7896 57.4822C79.24 56.5929 78.4523 55.8755 77.5157 55.4111ZM69.375 49.1922C69.3739 48.8438 69.4703 48.502 69.6535 48.2055C69.8367 47.9091 70.0992 47.67 70.4114 47.5152H70.4119C70.6977 47.3723 71.0154 47.3048 71.3346 47.3192C71.6539 47.3336 71.9641 47.4293 72.236 47.5973C72.5078 47.7653 72.7322 48.0001 72.8878 48.2792C73.0434 48.5583 73.1251 48.8726 73.125 49.1922V50.1819C73.1262 50.5304 73.0297 50.8722 72.8465 51.1686C72.6633 51.465 72.4007 51.7042 72.0884 51.8589L71.25 52.2782L70.4114 51.8589C70.0992 51.7041 69.8367 51.465 69.6535 51.1685C69.4703 50.8721 69.3739 50.5303 69.375 50.1819V49.1922ZM76.875 66.3407L73.125 68.2157V78.7495H69.375V68.2157L65.625 66.3407V60.4422C65.6238 60.0937 65.7203 59.7519 65.9036 59.4555C66.0868 59.1591 66.3494 58.9199 66.6616 58.7652L71.25 56.4709L75.8387 58.7652C76.1508 58.92 76.4134 59.1591 76.5966 59.4555C76.7797 59.752 76.8762 60.0938 76.875 60.4422V66.3407Z" fill="#867D9E"/>
</svg>
