<svg width="120" height="120" viewBox="0 0 120 120" fill="none" xmlns="http://www.w3.org/2000/svg">
<g clip-path="url(#clip0_4683_10663)">
<path d="M60.1125 70.1327C59.9594 69.933 59.7623 69.7712 59.5366 69.6599C59.3108 69.5485 59.0625 69.4906 58.8108 69.4905H11.0288C10.6675 69.4905 10.3163 69.6097 10.0297 69.8296C9.74311 70.0496 9.53712 70.358 9.4437 70.707L3.20534 93.9961C3.19808 94.0195 3.19292 94.043 3.18659 94.0664L0.0560454 105.753C-0.00918099 105.996 -0.0175982 106.251 0.0314452 106.498C0.0804886 106.745 0.185677 106.977 0.338871 107.177C0.492065 107.376 0.689156 107.538 0.914892 107.65C1.14063 107.761 1.38895 107.819 1.64065 107.819H24.5684V113.32H22.4693C22.0342 113.32 21.6169 113.493 21.3092 113.801C21.0016 114.109 20.8287 114.526 20.8287 114.961C20.8287 115.396 21.0016 115.813 21.3092 116.121C21.6169 116.429 22.0342 116.602 22.4693 116.602H37.9824C38.4175 116.602 38.8348 116.429 39.1425 116.121C39.4501 115.813 39.623 115.396 39.623 114.961C39.623 114.526 39.4501 114.109 39.1425 113.801C38.8348 113.493 38.4175 113.32 37.9824 113.32H35.8765V107.82H49.4164C49.7776 107.82 50.1288 107.7 50.4154 107.48C50.702 107.261 50.908 106.952 51.0014 106.603L60.3957 71.557C60.4609 71.3138 60.4694 71.0588 60.4203 70.8119C60.3712 70.5649 60.2659 70.3325 60.1125 70.1327ZM36.1789 72.7734H44.7265C43.9765 75.5725 43.2265 78.3716 42.4765 81.1709H33.9291C34.6789 78.3715 35.4289 75.5723 36.1789 72.7734ZM24.2335 72.7734H32.7811C32.0311 75.5725 31.2811 78.3716 30.5311 81.1709H21.9844C22.7344 78.3715 23.4844 75.5723 24.2344 72.7734H24.2335ZM12.2881 72.7734H20.836L18.586 81.1709H10.0385L12.2881 72.7734ZM12.3282 104.537H3.77956L6.03073 96.1322H14.5782L12.3282 104.537ZM6.90987 92.85L9.15987 84.4523H17.7064C16.9564 87.2516 16.2064 90.0508 15.4564 92.85H6.90987ZM24.2726 104.537H15.725C16.475 101.735 17.225 98.9334 17.975 96.1322H26.5226C25.7729 98.9333 25.0229 101.735 24.2726 104.537ZM18.8548 92.85C19.6048 90.0506 20.3548 87.2514 21.1048 84.4523H29.6527C28.9027 87.2516 28.1527 90.0508 27.4027 92.85H18.8548ZM32.5943 113.32H27.8508V107.82H32.5943V113.32ZM36.211 104.537H27.6703C28.4203 101.735 29.1703 98.9334 29.9203 96.1322H38.4628C37.7124 98.9333 36.9617 101.735 36.211 104.537ZM30.8002 92.85C31.5502 90.0506 32.3002 87.2514 33.0502 84.4523H41.5957C41.4551 84.9769 41.3145 85.5014 41.1739 86.0259C40.5645 88.3006 39.9545 90.5753 39.3439 92.85H30.8002ZM48.1573 104.537H39.6094C40.3594 101.735 41.11 98.9334 41.8613 96.1322H50.4101L48.1573 104.537ZM51.29 92.85H42.7414C43.2753 90.8584 43.8092 88.8671 44.3433 86.876C44.5599 86.068 44.7765 85.2602 44.9932 84.4523H53.5409L51.29 92.85ZM54.4219 81.1702H45.8733C46.6233 78.3709 47.3733 75.5718 48.1233 72.7727H56.6719L54.4219 81.1702ZM107.683 51.8498L77.6328 48.3084C77.1196 46.5466 75.9885 45.0289 74.4469 44.0334L76.3634 37.8902C76.45 37.6127 76.4613 37.3172 76.3962 37.0338L70.5682 11.707C70.4881 11.3585 70.2962 11.0456 70.0218 10.8162C69.7474 10.5867 69.4056 10.4532 69.0483 10.436L63.2682 10.1569C63.0263 10.1451 62.7848 10.187 62.5611 10.2796C62.3374 10.3722 62.1369 10.5132 61.9741 10.6924C61.8113 10.8717 61.6901 11.0847 61.6194 11.3163C61.5487 11.5479 61.5301 11.7923 61.5649 12.0319L66.2229 44.0227C65.3383 44.5916 64.5804 45.3366 63.9964 46.2113L56.1917 45.8932C55.9011 45.8813 55.6126 45.9469 55.3557 46.0833L32.3965 58.268C32.0804 58.4357 31.8277 58.7021 31.6771 59.0268C31.5264 59.3514 31.4861 59.7164 31.5621 60.0661L32.7912 65.7202C32.8426 65.9568 32.9457 66.1791 33.0931 66.3711C33.2405 66.5632 33.4286 66.7202 33.6439 66.831C33.8592 66.9418 34.0964 67.0035 34.3384 67.0118C34.5804 67.0201 34.8212 66.9747 35.0435 66.8789L63.8951 54.4624C64.511 55.4376 65.3393 56.2611 66.3181 56.8713L61.8778 113.32H58.6449C58.2098 113.32 57.7924 113.493 57.4848 113.801C57.1771 114.109 57.0042 114.526 57.0042 114.961C57.0042 115.396 57.1771 115.813 57.4848 116.121C57.7924 116.429 58.2098 116.602 58.6449 116.602H82.0121C82.4472 116.602 82.8645 116.429 83.1722 116.121C83.4798 115.813 83.6527 115.396 83.6527 114.961C83.6527 114.526 83.4798 114.109 83.1722 113.801C82.8645 113.493 82.4472 113.32 82.0121 113.32H78.7777L74.3372 56.8695C74.4143 56.8214 74.4914 56.7729 74.5669 56.7223L78.8672 59.4436C79.1129 59.599 79.3955 59.6864 79.6861 59.6967L105.663 60.6202H105.722C106.069 60.6201 106.408 60.5098 106.688 60.3051C106.969 60.1004 107.178 59.8119 107.284 59.4811L109.051 53.9801C109.125 53.7494 109.148 53.5052 109.116 53.265C109.085 53.0247 109 52.7944 108.869 52.5906C108.738 52.3868 108.564 52.2146 108.358 52.0863C108.153 51.9579 107.921 51.8767 107.681 51.8484L107.683 51.8498ZM62.7868 51.3673L35.5758 63.0773L35.0337 60.5845L56.5039 49.1911L62.7882 49.4473C62.7036 50.0844 62.7028 50.7299 62.7858 51.3673H62.7868ZM65.1 13.5312L67.6484 13.654L73.0969 37.3359L71.3649 42.8883C70.7043 42.795 70.0342 42.7912 69.3727 42.877L65.1 13.5312ZM75.4854 113.32H65.1703L69.5239 57.9752C70.0583 58.0323 70.5972 58.0323 71.1317 57.9752L75.4854 113.32ZM70.3245 54.7355C69.4896 54.7342 68.6729 54.4909 67.9734 54.0351C67.2739 53.5792 66.7216 52.9304 66.3832 52.1671C66.0449 51.4038 65.9351 50.5588 66.0671 49.7344C66.199 48.91 66.5672 48.1416 67.1269 47.5221C67.6867 46.9026 68.414 46.4586 69.2208 46.2439C70.0277 46.0293 70.8794 46.0531 71.673 46.3125C72.4666 46.572 73.1679 47.0559 73.6922 47.7057C74.2164 48.3555 74.541 49.1434 74.6267 49.9739V49.9767C74.6878 50.5782 74.6221 51.1859 74.4336 51.7604C74.2452 52.3349 73.9383 52.8635 73.5328 53.3119C73.1272 53.7603 72.6321 54.1187 72.0794 54.3637C71.5266 54.6088 70.9286 54.7351 70.324 54.7345L70.3245 54.7355ZM104.54 57.2967L80.2475 56.4333L76.8647 54.293C77.3518 53.4765 77.6801 52.5754 77.8325 51.637L105.318 54.8761L104.54 57.2967ZM88.8469 29.738C88.9547 29.9246 89.0246 30.1307 89.0527 30.3443C89.0808 30.558 89.0666 30.7751 89.0107 30.9833C88.9549 31.1915 88.8586 31.3866 88.7273 31.5575C88.5961 31.7285 88.4324 31.8719 88.2457 31.9795L85.3557 33.6471C84.9787 33.8647 84.5307 33.9236 84.1103 33.8109C83.6899 33.6981 83.3315 33.423 83.114 33.0461C82.8964 32.6691 82.8375 32.2211 82.9502 31.8007C83.063 31.3803 83.3381 31.0219 83.715 30.8044L86.6051 29.1368C86.7918 29.029 86.9978 28.959 87.2115 28.9309C87.4252 28.9028 87.6424 28.917 87.8506 28.9729C88.0588 29.0287 88.2539 29.125 88.4249 29.2563C88.5958 29.3876 88.7392 29.5512 88.8469 29.738ZM106.208 9.53484L107.876 6.645C107.983 6.45834 108.127 6.29473 108.298 6.16351C108.469 6.03229 108.664 5.93602 108.872 5.88021C109.08 5.82439 109.297 5.81013 109.511 5.83822C109.725 5.86631 109.931 5.93622 110.117 6.04395C110.304 6.15167 110.468 6.2951 110.599 6.46606C110.73 6.63702 110.826 6.83214 110.882 7.0403C110.938 7.24846 110.952 7.46558 110.924 7.67925C110.896 7.89292 110.826 8.09897 110.718 8.28563L109.051 11.1755C108.943 11.3621 108.8 11.5257 108.629 11.657C108.458 11.7882 108.263 11.8844 108.054 11.9403C107.846 11.9961 107.629 12.0103 107.415 11.9822C107.202 11.9542 106.996 11.8842 106.809 11.7765C106.622 11.6688 106.459 11.5254 106.328 11.3544C106.196 11.1835 106.1 10.9883 106.044 10.7802C105.988 10.572 105.974 10.3549 106.002 10.1412C106.03 9.92755 106.1 9.7215 106.208 9.53484ZM98.5936 8.37516V5.03906C98.5936 4.60394 98.7665 4.18664 99.0742 3.87897C99.3818 3.57129 99.7991 3.39844 100.234 3.39844C100.669 3.39844 101.087 3.57129 101.394 3.87897C101.702 4.18664 101.875 4.60394 101.875 5.03906V8.37422C101.875 8.80934 101.702 9.22664 101.394 9.53432C101.087 9.84199 100.669 10.0148 100.234 10.0148C99.7991 10.0148 99.3818 9.84199 99.0742 9.53432C98.7665 9.22664 98.5936 8.80934 98.5936 8.37422V8.37516ZM112.546 23.1642C112.546 20.7293 111.824 18.3491 110.471 16.3246C109.118 14.3 107.195 12.7221 104.946 11.7903C102.696 10.8585 100.221 10.6147 97.833 11.0898C95.4449 11.5648 93.2512 12.7373 91.5295 14.459C89.8078 16.1807 88.6353 18.3744 88.1603 20.7625C87.6852 23.1506 87.929 25.6259 88.8608 27.8754C89.7926 30.125 91.3705 32.0477 93.3951 33.4005C95.4196 34.7532 97.7998 35.4752 100.235 35.4752C103.499 35.4718 106.629 34.1736 108.937 31.8655C111.245 29.5573 112.543 26.4278 112.547 23.1635L112.546 23.1642ZM100.235 32.193C98.449 32.193 96.7034 31.6635 95.2186 30.6714C93.7338 29.6793 92.5765 28.2692 91.8932 26.6194C91.2098 24.9696 91.031 23.1542 91.3794 21.4028C91.7278 19.6514 92.5877 18.0426 93.8504 16.7799C95.1131 15.5172 96.7219 14.6573 98.4733 14.3089C100.225 13.9605 102.04 14.1393 103.69 14.8227C105.34 15.506 106.75 16.6633 107.742 18.1481C108.734 19.6329 109.264 21.3785 109.264 23.1642C109.261 25.5579 108.309 27.8527 106.616 29.5452C104.923 31.2377 102.628 32.1897 100.235 32.1923V32.193ZM93.6603 34.5516C93.8469 34.6592 94.0106 34.8026 94.1418 34.9735C94.273 35.1445 94.3693 35.3396 94.4251 35.5477C94.481 35.7558 94.4952 35.9729 94.4672 36.1866C94.4391 36.4002 94.3692 36.6063 94.2614 36.7929L92.5941 39.6827C92.4864 39.8694 92.3429 40.033 92.172 40.1642C92.001 40.2954 91.8059 40.3917 91.5977 40.4475C91.3896 40.5033 91.1725 40.5176 90.9588 40.4895C90.7451 40.4614 90.5391 40.3915 90.3524 40.2838C90.1658 40.1761 90.0021 40.0326 89.8709 39.8617C89.7397 39.6907 89.6434 39.4956 89.5876 39.2874C89.5318 39.0793 89.5175 38.8622 89.5456 38.6485C89.5737 38.4348 89.6436 38.2288 89.7514 38.0421L91.4187 35.1523C91.5264 34.9656 91.6698 34.802 91.8408 34.6708C92.0117 34.5396 92.2069 34.4433 92.415 34.3875C92.6232 34.3318 92.8403 34.3175 93.054 34.3457C93.2676 34.3738 93.4736 34.4438 93.6603 34.5516ZM111.623 16.5891C111.515 16.4024 111.445 16.1963 111.417 15.9827C111.389 15.769 111.403 15.5518 111.459 15.3437C111.515 15.1355 111.611 14.9404 111.742 14.7695C111.874 14.5985 112.037 14.4552 112.224 14.3475L115.114 12.6802C115.3 12.5724 115.506 12.5025 115.72 12.4744C115.934 12.4463 116.151 12.4606 116.359 12.5164C116.567 12.5722 116.762 12.6685 116.933 12.7997C117.104 12.9309 117.248 13.0946 117.355 13.2812C117.463 13.4679 117.533 13.6739 117.561 13.8876C117.589 14.1013 117.575 14.3184 117.519 14.5265C117.463 14.7347 117.367 14.9298 117.236 15.1008C117.105 15.2717 116.941 15.4152 116.754 15.5229L113.865 17.1902C113.678 17.298 113.472 17.3679 113.258 17.396C113.045 17.4242 112.827 17.4099 112.619 17.3541C112.411 17.2982 112.216 17.2019 112.045 17.0707C111.874 16.9394 111.731 16.7758 111.623 16.5891H111.623ZM89.7514 8.28445C89.6436 8.0978 89.5737 7.89175 89.5456 7.67808C89.5175 7.4644 89.5318 7.24729 89.5876 7.03913C89.7003 6.61873 89.9754 6.26033 90.3524 6.04277C90.7294 5.82521 91.1773 5.76631 91.5977 5.87903C92.0181 5.99175 92.3765 6.26686 92.5941 6.64383L94.2614 9.53367C94.479 9.91064 94.5379 10.3586 94.4252 10.779C94.3125 11.1994 94.0373 11.5578 93.6604 11.7754C93.2834 11.9929 92.8355 12.0518 92.4151 11.9391C91.9947 11.8264 91.6363 11.5513 91.4187 11.1743L89.7514 8.28445ZM100.235 36.3115C100.67 36.3115 101.087 36.4843 101.395 36.792C101.702 37.0997 101.875 37.517 101.875 37.9521V41.2873C101.875 41.7224 101.702 42.1397 101.395 42.4474C101.087 42.755 100.67 42.9279 100.235 42.9279C99.7996 42.9279 99.3823 42.755 99.0746 42.4474C98.7669 42.1397 98.5941 41.7224 98.5941 41.2873V37.9521C98.5941 37.517 98.7669 37.0997 99.0746 36.792C99.3823 36.4843 99.7996 36.3115 100.235 36.3115ZM120 23.1635C120 23.5986 119.827 24.0159 119.52 24.3236C119.212 24.6313 118.795 24.8041 118.359 24.8041H115.024C114.589 24.8041 114.172 24.6313 113.864 24.3236C113.556 24.0159 113.384 23.5986 113.384 23.1635C113.384 22.7284 113.556 22.3111 113.864 22.0034C114.172 21.6957 114.589 21.5229 115.024 21.5229H118.359C118.795 21.5229 119.212 21.6957 119.52 22.0034C119.827 22.3111 120 22.7284 120 23.1635ZM27.8307 53.1537C32.4021 53.1537 36.871 51.7982 40.6721 49.2584C44.4732 46.7187 47.4357 43.1088 49.1852 38.8853C50.9347 34.6618 51.3924 30.0144 50.5006 25.5307C49.6088 21.047 47.4074 16.9285 44.1749 13.696C40.9424 10.4634 36.8239 8.26203 32.3403 7.37016C27.8566 6.47829 23.2092 6.936 18.9857 8.68543C14.7622 10.4349 11.1523 13.3974 8.61246 17.1985C6.07267 20.9995 4.71706 25.4683 4.71706 30.0398C4.72401 36.1678 7.16141 42.0429 11.4945 46.376C15.8277 50.7092 21.7027 53.1467 27.8307 53.1537ZM27.8307 10.2082C31.753 10.2082 35.5873 11.3712 38.8486 13.5503C42.1099 15.7294 44.6518 18.8267 46.1529 22.4504C47.6539 26.0742 48.0467 30.0617 47.2815 33.9087C46.5163 37.7556 44.6276 41.2893 41.8541 44.0628C39.0806 46.8364 35.5469 48.7252 31.6999 49.4904C27.853 50.2556 23.8655 49.8629 20.2417 48.3619C16.6179 46.8609 13.5206 44.319 11.3415 41.0577C9.16236 37.7964 7.99925 33.9622 7.99925 30.0398C8.0052 24.782 10.0965 19.7413 13.8143 16.0234C17.5321 12.3056 22.5728 10.2142 27.8307 10.2082ZM117.355 33.0469C117.248 33.2336 117.104 33.3972 116.933 33.5285C116.762 33.6597 116.567 33.756 116.359 33.8119C116.151 33.8677 115.934 33.882 115.72 33.8539C115.506 33.8257 115.3 33.7558 115.114 33.648L112.224 31.9805C112.037 31.8727 111.874 31.7293 111.742 31.5584C111.611 31.3874 111.515 31.1923 111.459 30.9841C111.403 30.7759 111.389 30.5588 111.417 30.3452C111.445 30.1315 111.515 29.9254 111.623 29.7388C111.731 29.5521 111.874 29.3885 112.045 29.2573C112.216 29.1261 112.411 29.0298 112.619 28.974C112.827 28.9182 113.045 28.9039 113.258 28.932C113.472 28.9601 113.678 29.03 113.865 29.1377L116.754 30.8053C116.941 30.913 117.105 31.0564 117.236 31.2274C117.367 31.3983 117.463 31.5934 117.519 31.8016C117.575 32.0098 117.589 32.2269 117.561 32.4405C117.533 32.6542 117.463 32.8602 117.355 33.0469ZM110.719 38.0426C110.826 38.2292 110.896 38.4353 110.925 38.649C110.953 38.8626 110.938 39.0797 110.883 39.2879C110.827 39.4961 110.73 39.6912 110.599 39.8621C110.468 40.0331 110.304 40.1765 110.118 40.2843C109.931 40.392 109.725 40.4619 109.511 40.49C109.298 40.5181 109.081 40.5038 108.872 40.448C108.664 40.3922 108.469 40.2959 108.298 40.1647C108.127 40.0335 107.984 39.8699 107.876 39.6832L106.208 36.7934C105.991 36.4164 105.932 35.9684 106.045 35.548C106.157 35.1276 106.433 34.7692 106.81 34.5517C107.186 34.3341 107.634 34.2752 108.055 34.3879C108.475 34.5007 108.834 34.7758 109.051 35.1527L110.719 38.0426ZM39.6942 29.6548C39.8879 29.5602 40.0983 29.5047 40.3133 29.4914C40.5284 29.4782 40.744 29.5074 40.9478 29.5775C41.1516 29.6476 41.3396 29.7571 41.501 29.8999C41.6625 30.0426 41.7942 30.2158 41.8887 30.4095L44.3471 35.4455C44.538 35.8366 44.5657 36.2875 44.4242 36.6991C44.2826 37.1106 43.9834 37.4491 43.5923 37.64C43.2011 37.831 42.7502 37.8587 42.3386 37.7171C41.9271 37.5756 41.5886 37.2763 41.3977 36.8852L40.8633 35.7909C39.8477 38.0309 38.2582 39.9627 36.2557 41.3906C34.2531 42.8185 31.9088 43.6917 29.4601 43.9219C27.0115 44.1521 24.5455 43.731 22.3119 42.7014C20.0784 41.6717 18.1567 40.07 16.7414 38.0585C16.6176 37.8822 16.5297 37.6832 16.4828 37.4728C16.4359 37.2625 16.4308 37.045 16.4679 36.8328C16.5051 36.6205 16.5836 36.4176 16.6992 36.2357C16.8147 36.0539 16.9649 35.8965 17.1413 35.7727C17.3176 35.6488 17.5166 35.5609 17.7269 35.514C17.9373 35.4671 18.1548 35.462 18.367 35.4992C18.5793 35.5363 18.7822 35.6149 18.964 35.7304C19.1459 35.8459 19.3033 35.9962 19.4271 36.1725C20.5254 37.7341 22.0225 38.9723 23.7623 39.7581C25.5022 40.5439 27.421 40.8485 29.3187 40.64C31.2163 40.4315 33.0233 39.7176 34.5511 38.5729C36.0788 37.4281 37.2714 35.8943 38.0044 34.1316L36.098 35.0623C35.7069 35.2532 35.256 35.2809 34.8444 35.1394C34.4328 34.9978 34.0943 34.6986 33.9034 34.3075C33.7125 33.9163 33.6848 33.4654 33.8263 33.0539C33.9679 32.6423 34.2671 32.3038 34.6582 32.1129L39.6942 29.6548ZM80.4694 23.1626C80.4694 22.7275 80.6423 22.3102 80.9499 22.0025C81.2576 21.6948 81.6749 21.522 82.11 21.522H85.4452C85.8803 21.522 86.2976 21.6948 86.6053 22.0025C86.913 22.3102 87.0858 22.7275 87.0858 23.1626C87.0858 23.5977 86.913 24.015 86.6053 24.3227C86.2976 24.6304 85.8803 24.8032 85.4452 24.8032H82.11C81.6751 24.8032 81.2579 24.6305 80.9503 24.323C80.6426 24.0155 80.4697 23.5985 80.4694 23.1635V23.1626ZM14.5313 30.2777L11.4286 25.6137C11.3093 25.4342 11.2264 25.2331 11.1848 25.0216C11.1432 24.8102 11.1436 24.5926 11.1861 24.3813C11.2719 23.9547 11.5236 23.5795 11.886 23.3385C12.2484 23.0974 12.6916 23.0102 13.1183 23.096C13.545 23.1817 13.9201 23.4335 14.1612 23.7959L15.0802 25.1773C15.9663 22.7953 17.4866 20.7007 19.4767 19.12C21.4668 17.5392 23.851 16.5323 26.3717 16.2082C28.8925 15.884 31.4539 16.2549 33.7791 17.2808C36.1044 18.3066 38.1051 19.9484 39.5651 22.0287C39.815 22.385 39.913 22.826 39.8377 23.2546C39.7624 23.6833 39.52 24.0644 39.1636 24.3143C38.8073 24.5641 38.3663 24.6622 37.9377 24.5869C37.509 24.5116 37.1278 24.2691 36.878 23.9128C35.7919 22.3656 34.3141 21.1349 32.5958 20.3469C30.8775 19.5589 28.9807 19.2418 27.0995 19.4282C25.2184 19.6145 23.4206 20.2977 21.8904 21.4076C20.3602 22.5175 19.1525 24.0142 18.3912 25.7445L19.655 24.9059C19.8345 24.7867 20.0357 24.704 20.2472 24.6626C20.4587 24.6212 20.6762 24.6219 20.8874 24.6646C21.0987 24.7073 21.2994 24.7911 21.4782 24.9114C21.657 25.0316 21.8104 25.1859 21.9296 25.3655C22.0487 25.545 22.1314 25.7462 22.1728 25.9577C22.2142 26.1692 22.2135 26.3867 22.1708 26.598C22.1282 26.8092 22.0443 27.0099 21.924 27.1887C21.8038 27.3675 21.6495 27.5209 21.47 27.6401L16.8059 30.7359C16.4436 30.9765 16.0006 31.0633 15.5743 30.9774C15.148 30.8915 14.7733 30.6398 14.5325 30.2777H14.5313ZM83.1141 13.2813C83.2218 13.0946 83.3652 12.931 83.5361 12.7997C83.707 12.6685 83.9022 12.5722 84.1103 12.5163C84.3185 12.4605 84.5356 12.4462 84.7493 12.4743C84.963 12.5025 85.169 12.5724 85.3557 12.6802L88.2457 14.3475C88.4324 14.4552 88.596 14.5987 88.7272 14.7696C88.8584 14.9406 88.9547 15.1357 89.0105 15.3439C89.0663 15.552 89.0806 15.7691 89.0525 15.9828C89.0244 16.1965 88.9545 16.4025 88.8468 16.5892C88.7391 16.7758 88.5956 16.9394 88.4247 17.0707C88.2537 17.2019 88.0586 17.2982 87.8504 17.354C87.6423 17.4098 87.4252 17.4241 87.2115 17.396C86.9978 17.3679 86.7918 17.298 86.6051 17.1902L83.715 15.5229C83.5284 15.4152 83.3647 15.2718 83.2335 15.1008C83.1022 14.9299 83.006 14.7348 82.9502 14.5266C82.8944 14.3184 82.8801 14.1013 82.9082 13.8877C82.9364 13.674 83.0063 13.468 83.1141 13.2813Z" fill="#867D9E"/>
</g>
<defs>
<clipPath id="clip0_4683_10663">
<rect width="120" height="120" fill="white"/>
</clipPath>
</defs>
</svg>
