<svg width="48" height="48" viewBox="0 0 48 48" fill="none" xmlns="http://www.w3.org/2000/svg">
<g clip-path="url(#clip0_4683_8840)">
<path d="M16.2656 36.9094L12.8344 34.9313C12.6094 34.8 12.3281 34.8 12.1031 34.9219C11.5031 35.25 10.8281 35.5031 10.0969 35.6719C9.825 35.7375 9.60938 35.9437 9.53437 36.2156L8.71875 39.3656L7.875 36.2063C7.8 35.9438 7.59375 35.7375 7.32187 35.6719C6.59062 35.4938 5.94375 35.25 5.35312 34.9313C5.12812 34.8094 4.84687 34.8094 4.62187 34.9406L1.19062 36.9187C0.45 37.3406 0 38.1187 0 38.9812V45.6C0 46.9219 1.07812 48 2.4 48H15.075C15.7125 48 16.3125 47.7469 16.7719 47.2969C17.2219 46.8469 17.475 46.2469 17.475 45.6V38.9812C17.4656 38.1187 17.0156 37.3406 16.2656 36.9094ZM15.9656 45.6C15.9656 45.8344 15.8719 46.0594 15.7031 46.2281C15.5344 46.3969 15.3094 46.4906 15.075 46.4906H2.4C1.90313 46.4906 1.5 46.0875 1.5 45.5906V38.9719C1.5 38.6344 1.65937 38.3625 1.95 38.1937L5.025 36.4219C5.50312 36.6562 6 36.8438 6.54375 36.9938L8.00625 42.4875C8.09062 42.8156 8.39062 43.0406 8.72812 43.0406C9.06563 43.0406 9.36563 42.8063 9.45 42.4781L10.875 36.9938C11.4187 36.8438 11.9438 36.6469 12.4313 36.4125L15.5062 38.1844C15.7969 38.3531 15.9562 38.625 15.9562 38.9625L15.9656 45.6ZM8.72812 35.5875C11.25 35.5875 13.3031 33.5344 13.3031 31.0125C13.3031 28.4906 11.25 26.4375 8.72812 26.4375C6.20625 26.4375 4.15312 28.4906 4.15312 31.0125C4.15312 33.5344 6.20625 35.5875 8.72812 35.5875ZM8.72812 27.9375C10.425 27.9375 11.8031 29.3156 11.8031 31.0125C11.8031 32.7094 10.425 34.0875 8.72812 34.0875C7.03125 34.0875 5.65312 32.7094 5.65312 31.0125C5.65312 29.3156 7.03125 27.9375 8.72812 27.9375ZM46.8 36.9094L43.3688 34.9313C43.1437 34.8 42.8625 34.8 42.6375 34.9219C42.0375 35.25 41.3625 35.5031 40.6312 35.6719C40.3594 35.7375 40.1437 35.9437 40.0687 36.2156L39.2531 39.3656L38.4094 36.2063C38.3344 35.9438 38.1281 35.7375 37.8562 35.6719C37.125 35.4938 36.4781 35.25 35.8875 34.9313C35.6625 34.8094 35.3812 34.8094 35.1562 34.9406L31.725 36.9187C30.975 37.35 30.525 38.1281 30.525 38.9906V45.6094C30.525 46.9313 31.6031 48.0094 32.925 48.0094H45.6C46.9219 48.0094 48 46.9313 48 45.6094V38.9906C48 38.1187 47.55 37.3406 46.8 36.9094ZM46.5 45.6C46.5 46.0969 46.0969 46.5 45.6 46.5H32.9344C32.4375 46.5 32.0344 46.0969 32.0344 45.6V38.9812C32.0344 38.6437 32.1937 38.3719 32.4844 38.2031L35.5594 36.4313C36.0375 36.6656 36.5344 36.8531 37.0781 37.0031L38.5406 42.4969C38.625 42.825 38.925 43.05 39.2625 43.05C39.6 43.05 39.9 42.8156 39.9844 42.4875L41.4094 37.0031C41.9531 36.8531 42.4781 36.6562 42.9656 36.4219L46.0406 38.1937C46.3312 38.3625 46.4906 38.6344 46.4906 38.9719V45.6H46.5ZM34.6969 31.0125C34.6969 33.5344 36.75 35.5875 39.2719 35.5875C41.7938 35.5875 43.8469 33.5344 43.8469 31.0125C43.8469 28.4906 41.7938 26.4375 39.2719 26.4375C36.75 26.4375 34.6969 28.4906 34.6969 31.0125ZM42.3469 31.0125C42.3469 32.7094 40.9688 34.0875 39.2719 34.0875C37.575 34.0875 36.1969 32.7094 36.1969 31.0125C36.1969 29.3156 37.575 27.9375 39.2719 27.9375C40.9688 27.9375 42.3469 29.3156 42.3469 31.0125ZM32.7281 19.1625V12.5438C32.7281 11.6813 32.2781 10.9031 31.5281 10.4719L28.0969 8.49375C27.8719 8.3625 27.5906 8.3625 27.3656 8.48438C26.7656 8.8125 26.0906 9.06563 25.3594 9.23438C25.0875 9.3 24.8719 9.50625 24.7969 9.77813L23.9813 12.9281L23.1375 9.76875C23.0625 9.50625 22.8562 9.3 22.5844 9.23438C21.8531 9.05625 21.2062 8.8125 20.6156 8.49375C20.3906 8.37187 20.1094 8.37187 19.8844 8.50312L16.4531 10.4813C15.7031 10.9125 15.2531 11.6906 15.2531 12.5531V19.1719C15.2531 20.4937 16.3313 21.5719 17.6531 21.5719H30.3281C31.6594 21.5625 32.7281 20.4844 32.7281 19.1625ZM31.2281 19.1625C31.2281 19.6594 30.825 20.0625 30.3281 20.0625H17.6625C17.1656 20.0625 16.7625 19.6594 16.7625 19.1625V12.5438C16.7625 12.2063 16.9219 11.9344 17.2125 11.7656L20.2875 9.99375C20.7656 10.2281 21.2625 10.4156 21.8063 10.5656L23.2687 16.0594C23.3531 16.3875 23.6531 16.6125 24 16.6125C24.3375 16.6125 24.6375 16.3781 24.7219 16.05L26.1469 10.5656C26.6906 10.4156 27.2156 10.2188 27.7031 9.98438L30.7781 11.7563C31.0687 11.925 31.2281 12.1969 31.2281 12.5344V19.1625ZM24 9.15C26.5219 9.15 28.575 7.09687 28.575 4.575C28.575 2.05312 26.5219 0 24 0C21.4781 0 19.425 2.05312 19.425 4.575C19.425 7.09687 21.4781 9.15 24 9.15ZM24 1.5C25.6969 1.5 27.075 2.87812 27.075 4.575C27.075 6.27187 25.6969 7.65 24 7.65C22.3031 7.65 20.925 6.27187 20.925 4.575C20.925 2.87812 22.3031 1.5 24 1.5ZM29.475 5.40938C29.6156 5.025 30.0469 4.81875 30.4406 4.96875C33.9844 6.27187 37.0219 8.59687 39.2156 11.6906C41.4562 14.85 42.6469 18.5812 42.6469 22.4719C42.6469 22.6594 42.6469 22.8469 42.6375 23.0438L43.5938 21.9656C43.8656 21.6562 44.3438 21.6281 44.6531 21.9094C44.9625 22.1812 44.9906 22.6594 44.7094 22.9688L42.2344 25.7344C42.0938 25.8937 41.8875 25.9875 41.6719 25.9875C41.6531 25.9875 41.6344 25.9875 41.6062 25.9875C41.3719 25.9688 41.1562 25.8375 41.0344 25.6406L39.0563 22.5C38.8312 22.1531 38.9438 21.6844 39.2906 21.4688C39.6375 21.2437 40.1063 21.3563 40.3219 21.7031L41.1188 22.9594C41.1188 22.8 41.1281 22.6406 41.1281 22.4813C41.1281 15.3281 36.6188 8.85938 29.9062 6.39375C29.5312 6.23437 29.325 5.80312 29.475 5.40938ZM5.57812 25.3406C5.42812 24.3937 5.3625 23.4281 5.3625 22.4719C5.3625 18.7031 6.47812 15.075 8.59687 11.9813C10.3031 9.47813 12.5719 7.44375 15.2156 6.02813L14.0438 5.84062C13.6313 5.775 13.3594 5.39062 13.4156 4.9875C13.4813 4.575 13.8656 4.29375 14.2687 4.35938L17.9344 4.93125C18.1688 4.96875 18.3656 5.10938 18.4781 5.31563C18.5906 5.52187 18.6 5.775 18.4969 5.98125L16.9313 9.34687C16.8 9.61875 16.5375 9.77813 16.2469 9.77813C16.1438 9.77813 16.0312 9.75937 15.9281 9.7125C15.5531 9.53438 15.3938 9.09375 15.5625 8.71875L16.2938 7.14375C10.5281 10.0312 6.8625 15.9188 6.8625 22.4625C6.8625 23.3438 6.92813 24.2344 7.06875 25.1062C7.13438 25.5187 6.85312 25.9031 6.44062 25.9594C6.40312 25.9688 6.36562 25.9688 6.32812 25.9688C5.9625 25.9688 5.63438 25.7062 5.57812 25.3406ZM29.5687 39.4875C29.6812 39.8906 29.4469 40.3031 29.0531 40.4156C27.4219 40.875 25.7156 41.1094 24.0094 41.1094C22.8563 41.1094 21.7031 41.0063 20.5687 40.7906L21.4688 41.9437C21.7219 42.2719 21.6656 42.7406 21.3375 42.9938C21.1969 43.0969 21.0375 43.1531 20.8781 43.1531C20.6531 43.1531 20.4375 43.05 20.2875 42.8625L18 39.9375C17.8594 39.75 17.8031 39.5062 17.8688 39.2812C17.9344 39.0563 18.0938 38.8688 18.3094 38.7844L21.75 37.3969C22.1344 37.2375 22.575 37.425 22.725 37.8094C22.8844 38.1937 22.6969 38.6344 22.3125 38.7844L20.9625 39.3281C21.9656 39.5062 22.9875 39.6 24.0094 39.6C25.5844 39.6 27.15 39.3844 28.65 38.9625C29.0438 38.8594 29.4562 39.0844 29.5687 39.4875Z" fill="#231C34"/>
</g>
<defs>
<clipPath id="clip0_4683_8840">
<rect width="48" height="48" fill="white"/>
</clipPath>
</defs>
</svg>
